<?xml version="1.0" encoding="utf-8"?>
<!-- Generator: Adobe Illustrator 23.1.0, SVG Export Plug-In . SVG Version: 6.00 Build 0)  -->
<svg version="1.1" id="Ñëîé_1" xmlns="http://www.w3.org/2000/svg" xmlns:xlink="http://www.w3.org/1999/xlink" x="0px" y="0px"
	 viewBox="0 0 2800 2000" style="enable-background:new 0 0 2800 2000;" xml:space="preserve">
<style type="text/css">
	.st0{fill:#CFDDF9;}
	.st1{fill:#D4E8FF;}
	.st2{fill:#DCE6FF;}
	.st3{fill:#EEF7FF;}
	.st4{fill:#3A72AA;}
	.st5{fill:#FCB4B4;}
	.st6{fill:#CE4ABF;}
	.st7{fill:#8A9EDD;}
	.st8{fill:#FFFFFF;}
	.st9{fill:#D7DEFF;}
	.st10{fill:#EB5648;}
	.st11{fill:#D33F37;}
	.st12{fill:#CE3932;}
	.st13{fill:#F9B233;}
	.st14{fill:#FFC261;}
	.st15{fill:#245084;}
	.st16{fill:#2C6399;}
	.st17{fill:#C3DCFC;}
	.st18{fill:#DCEDFF;}
	.st19{fill:#F99370;}
	.st20{fill:#103663;}
	.st21{fill:#E8C0A6;}
	.st22{fill:#0F2E54;}
	.st23{fill:#C92828;}
	.st24{fill:#9358E0;}
	.st25{fill:#E57D61;}
	.st26{fill:#C16256;}
	.st27{fill:#23659B;}
	.st28{fill:#7640CC;}
	.st29{fill:#1D3F70;}
	.st30{opacity:0.4;fill:#FFFFFF;}
	.st31{fill:#395B96;}
	.st32{fill:#163260;}
	.st33{fill:#234270;}
	.st34{fill:#0B274F;}
	.st35{fill:#F4D4BE;}
	.st36{fill:#A523A2;}
	.st37{fill:#F9F8F3;}
</style>
<g>
	<g id="_x31_0">
		<path class="st0" d="M150.14,1607.67c0,0-5.45,65.03,98.31,112.46c108.98,49.82,644.19,23.92,507.22,82.59
			c-97.41,41.73,56.9,74.6,447.2,85.97c200.69,5.85,1075.78,20.57,870.46-94.23c-152.49-85.26,593.72,36.77,575.94-186.79H150.14z"
			/>
		<path class="st1" d="M590.09,1606.38c0,0-294.74-679.02-82.63-830.22c141.77-101.06,254.77,118.61,434.13,0.75
			c159.68-104.93,20.95-389.55,240.75-435.29c284.04-59.11,509.46,515.93,744.44,434.54c285.13-98.75,568.75,101.72,323.65,831.52
			L590.09,1606.38z"/>
		<path class="st2" d="M359.48,1540.82c-4.95-13.6-9.84-27.68-14.55-41.87l11.6-3.09c4.68,14.1,9.54,28.09,14.45,41.6
			L359.48,1540.82z M2434.61,1523.27l-12.01-1.33c1.99-14.47,3.89-29.05,5.63-43.32l12.03,1.18
			C2438.52,1494.12,2436.61,1508.74,2434.61,1523.27z M331.57,1456.78c-4.24-14.02-8.34-28.3-12.21-42.45l11.75-2.58
			c3.84,14.06,7.93,28.26,12.14,42.2L331.57,1456.78z M2445.22,1436.25l-12.05-1.02c1.53-14.53,2.95-29.15,4.21-43.44l12.06,0.86
			C2448.18,1406.99,2446.75,1421.66,2445.22,1436.25z M308.3,1371.62c-3.5-14.29-6.82-28.73-9.89-42.93l11.88-2.06
			c3.04,14.11,6.35,28.47,9.82,42.67L308.3,1371.62z M2452.92,1348.98l-12.08-0.69c1.02-14.52,1.92-29.17,2.67-43.53l12.09,0.51
			C2454.85,1319.69,2453.95,1334.39,2452.92,1348.98z M289.75,1285.54c-2.69-14.46-5.18-29.04-7.4-43.34l11.99-1.5
			c2.21,14.2,4.68,28.69,7.36,43.05L289.75,1285.54z M2457.45,1261.51l-12.1-0.32c0.47-14.59,0.8-29.25,0.97-43.58l12.1,0.11
			C2458.25,1232.12,2457.92,1246.85,2457.45,1261.51z M276.27,1198.69c-1.8-14.61-3.37-29.3-4.67-43.66l12.06-0.87
			c1.28,14.26,2.84,28.84,4.63,43.34L276.27,1198.69z M2446.37,1174.02c-0.14-14.6-0.45-29.25-0.92-43.57l12.1-0.32
			c0.47,14.39,0.78,29.12,0.92,43.79L2446.37,1174.02z M268.43,1111.25c-0.8-14.69-1.33-29.44-1.58-43.84l12.1-0.17
			c0.24,14.28,0.77,28.91,1.57,43.48L268.43,1111.25z M2443.5,1086.92c-0.83-14.58-1.85-29.2-3.04-43.47l12.07-0.81
			c1.19,14.35,2.22,29.06,3.05,43.72L2443.5,1086.92z M279.06,1023.74l-12.1-0.22c0.34-14.73,0.99-29.49,1.93-43.85l12.08,0.64
			C280.04,994.54,279.39,1009.15,279.06,1023.74z M2436.27,1000.07c-1.62-14.57-3.45-29.13-5.44-43.27l12.01-1.36
			c2.01,14.23,3.85,28.88,5.48,43.55L2436.27,1000.07z M284.81,936.98l-12.04-1.08c1.64-14.68,3.65-29.34,5.96-43.6l11.98,1.56
			C288.42,907.96,286.44,922.47,284.81,936.98z M2424.05,913.7c-2.52-14.48-5.28-28.91-8.21-42.88l11.89-2.01
			c2.96,14.08,5.74,28.62,8.28,43.22L2424.05,913.7z M992.82,912.17c-16.82-2.38-28.98-9.24-45.83-21.1l7.65-8.41
			c14.76,10.36,25.42,16.57,39.47,18.71L992.82,912.17z M1034.81,886.35l-10.78-4.94c5.54-9.73,10.44-23.23,14.56-40.12l11.82,2.32
			C1046.01,861.66,1040.9,875.64,1034.81,886.35z M911.48,859.95c-9.64-9.63-19.94-20.71-31.5-33.87l9.51-6.71
			c11.39,12.98,21.53,23.88,30.99,33.33L911.48,859.95z M298.79,851.05l-11.88-2.07c3.14-14.48,6.68-28.93,10.54-42.93l11.75,2.61
			C305.38,822.48,301.88,836.74,298.79,851.05z M2406.06,828.22c-3.58-14.33-7.45-28.54-11.49-42.23l11.7-2.78
			c4.08,13.82,7.98,28.17,11.6,42.64L2406.06,828.22z M1058.55,799.93l-12-1.39c1.86-12.95,3.52-27.14,5.09-43.37l12.06,0.94
			C1062.11,772.49,1060.43,786.83,1058.55,799.93z M850.34,791.11c-9.84-11.91-20.04-24.51-28.83-35.37l9.8-6.37
			c8.77,10.85,18.96,23.41,28.76,35.29L850.34,791.11z M1736.33,790.22c-9.42,0-18.67-2.52-27.48-7.5l6.45-9.18
			c13.24,7.49,26.26,7.51,40.32,1.53l5.21,9.8C1752.51,788.41,1744.27,790.22,1736.33,790.22z M322.07,766.83l-11.57-3.17
			c4.81-14.1,10.08-28.12,15.68-41.68l11.35,3.77C332.01,739.11,326.81,752.93,322.07,766.83z M1800.4,756.49l-8.89-7.36
			c9.18-8.91,19.01-19.9,30.07-33.61l9.8,6.36C1820.04,735.94,1809.9,747.26,1800.4,756.49z M1674.44,749.03
			c-7.83-10.83-15.59-23.59-23.73-39.01l10.94-4.64c7.9,14.97,15.41,27.32,22.94,37.75L1674.44,749.03z M2381.2,744.22
			c-4.87-14.06-10.08-27.9-15.46-41.14l11.37-3.72c5.45,13.4,10.72,27.41,15.65,41.64L2381.2,744.22z M792.83,720.35
			c-11.07-13.57-20.3-24.71-29.04-35.06l9.65-6.55c8.78,10.4,18.04,21.58,29.16,35.2L792.83,720.35z M1067.34,712.29l-12.08-0.7
			c0.92-12.71,1.85-27.01,2.85-43.69l12.08,0.58C1069.19,685.21,1068.26,699.53,1067.34,712.29z M355.67,685.57l-11.07-4.38
			c6.64-13.49,13.72-26.74,21.25-39.7l10.73,5.02C369.17,659.26,362.2,672.3,355.67,685.57z M1859.1,685.57l-10.11-5.96
			c8.6-11.72,17.48-24.15,26.47-36.7l10.18,5.87C1876.63,661.36,1867.74,673.79,1859.1,685.57z M1631.23,669.52
			c-5.48-12.33-11.15-25.78-17.32-41.12l11.38-3.68c6.13,15.23,11.74,28.57,17.17,40.79L1631.23,669.52z M2347.93,662.75
			c-6.51-13.59-13.39-26.79-20.46-39.24l10.79-4.92c7.19,12.66,14.18,26.07,20.79,39.88L2347.93,662.75z M733.91,650.91
			c-10.98-12.22-21.2-23.1-31.25-33.26l9.05-7.2c10.17,10.29,20.52,21.29,31.62,33.65L733.91,650.91z M1072.72,624.71l-12.09-0.55
			c0.82-14.5,1.63-29,2.49-43.76l12.08,0.57C1074.34,595.72,1073.53,610.22,1072.72,624.71z M1912.18,612.13l-10.1-5.98
			c10.11-13.72,19.15-25.59,27.65-36.28l9.86,6.3C1931.18,586.75,1922.21,598.51,1912.18,612.13z M400.57,609.06l-10.2-5.84
			c9.51-13.36,19.31-25.42,29.14-35.85l9.24,7C419.27,584.44,409.79,596.11,400.57,609.06z M1597.75,586.98
			c-5.55-14.58-10.99-29.18-15.59-41.53l11.48-3.43c4.59,12.33,10.02,26.9,15.56,41.46L1597.75,586.98z M669.39,586.22
			c-12.37-10.8-24.53-20.34-36.15-28.35l7.38-8.6c11.99,8.27,24.51,18.09,37.21,29.18L669.39,586.22z M2303.98,585.76
			c-8.67-12.69-17.76-24.69-27.02-35.67l9.65-6.55c9.5,11.26,18.81,23.56,27.69,36.55L2303.98,585.76z M462.7,544.85l-7.34-8.63
			c14.45-9.89,29.49-17.02,44.7-21.19l3.54,10.38C489.77,529.2,476.01,535.74,462.7,544.85z M1968.78,541.53l-9.4-6.83
			c11.35-12.56,22.1-23.36,32.88-33.03l8.56,7.67C1990.34,518.73,1979.86,529.27,1968.78,541.53z M1077.92,537.26l-12.08-0.65
			c1.05-15.77,2.09-30.1,3.18-43.79l12.07,0.77C1080,507.25,1078.96,521.53,1077.92,537.26z M593.24,534.99
			c-15.1-6.74-29.95-11.04-44.15-12.78l1.64-10.75c15.5,1.9,31.61,6.55,47.9,13.82L593.24,534.99z M2245.83,517.45
			c-11.65-10.7-23.71-20.15-35.85-28.08l7.13-8.77c12.69,8.29,25.27,18.14,37.39,29.27L2245.83,517.45z M1566.73,503.93
			c-6.02-16.15-10.98-29.31-15.61-41.43l11.45-3.52c4.64,12.15,9.61,25.34,15.64,41.51L1566.73,503.93z M2037.03,481.63l-6.94-8.89
			c14.88-9.34,29.92-16.25,44.68-20.55l3.74,10.32C2064.89,466.47,2050.93,472.91,2037.03,481.63z M2169.07,468.33
			c-14.99-5.67-30.16-9.18-45.09-10.43l1.12-10.81c16.17,1.35,32.54,5.13,48.67,11.24L2169.07,468.33z M1084.96,450.03l-12.05-0.96
			c1.51-15.23,3.15-29.93,4.88-43.71l12.03,1.21C1088.09,420.27,1086.46,434.89,1084.96,450.03z M1535.02,421.22
			c-5.85-14.64-11.36-28.02-16.85-40.9l11.31-3.87c5.52,12.96,11.06,26.41,16.93,41.11L1535.02,421.22z M1095.97,363.3l-11.98-1.55
			c2.45-15.19,5.14-29.81,8-43.43l11.89,2.01C1101.05,333.8,1098.39,348.26,1095.97,363.3z M1500.19,339.8
			c-6.5-14.03-13.06-27.45-19.48-39.89l10.98-4.56c6.49,12.57,13.11,26.12,19.68,40.28L1500.19,339.8z M1114.16,277.86l-11.74-2.63
			c4.22-15.15,8.87-29.43,13.83-42.43l11.45,3.51C1122.85,249.02,1118.3,263,1114.16,277.86z M1459.22,260.96
			c-7.96-13.44-16.09-26.06-24.17-37.51l10.23-5.8c8.24,11.68,16.52,24.54,24.63,38.22L1459.22,260.96z M1145.87,196.55l-10.85-4.8
			c7.95-14.44,16.76-27.2,26.19-37.94l9.51,6.72C1161.8,170.67,1153.45,182.79,1145.87,196.55z M1407.31,188.26
			c-10.57-11.89-21.49-22.42-32.44-31.3l8.12-8.05c11.43,9.27,22.8,20.23,33.78,32.58L1407.31,188.26z M1204.48,132.39l-6.52-9.14
			c14.34-8.23,30.13-13.58,46.95-15.9l1.84,10.73C1231.61,120.17,1217.39,124.98,1204.48,132.39z M1336.69,132.39
			c-14.1-6.82-28.78-11.47-43.65-13.85l2.12-10.68c16.13,2.58,32.04,7.62,47.27,14.98L1336.69,132.39z"/>
		<path class="st3" d="M2518.6,1267.53c-100.42-14.89-91.33,208.82-234.48,208.82c-130.88,0-200.91-499.8-344.54-398.15
			c-577.39,408.67-128.14-286.75-516.39-300.35c-175.55-6.15-292.53,181.04-335.67,512.47
			c-62.53,299.62-207.55-228.53-356.79-179.42c-94.85,31.21-83.99,365.44-214.87,365.44c-143.15,0-133.72-188.11-234.14-173.23
			c-108.12,16.03-133.46,307.68-133.46,307.68h2503.45C2651.72,1610.81,2626.73,1283.56,2518.6,1267.53z"/>
		<path class="st2" d="M2422.37,1502.32c-92.39-6.36-77.31,51.07-209,51.07c-120.41,0-117.1-128.7-197.67-156.05
			c-148.38-50.37-270.71,204.56-328.24,76.61c-109.26-339.49-427.92-509.74-574.93,0c-57.53,127.94-192.05-100.35-328.24-76.61
			c-83.83,14.61-77.27,156.05-197.67,156.05c-131.69,0-116.62-57.42-209-51.07c-99.47,6.84-129.18,108.48-129.18,108.48h2303.11
			C2551.56,1610.81,2521.84,1509.17,2422.37,1502.32z"/>
	</g>
	<path id="_x39_" class="st4" d="M764.77,962c-67.93-76.72-120.85-155.73-161.64-228.55c10.64,6.25,58.95,8.88,59.77-1.49
		c0.77-11.64-57.74-15.99-65.01-7.95c-2.73-4.97-5.41-9.91-8.03-14.81c10.44,5.58,61.95,0.99,61.31-9.93
		c-1.03-11.62-59.49-6.91-65.45,2.14c-3.27-6.21-6.44-12.36-9.53-18.45c10.96,5.08,60.89,0.39,60.2-10.28
		c-1.14-11.43-57.43-7.01-64.65,1.43c-3.04-6.11-6.02-12.17-8.89-18.13c9.51,5.73,64.31-7.69,61.8-18.9
		c-2.8-11.41-60.98,2.93-64.59,13.04c-2.74-5.78-5.42-11.5-8-17.13c10.74,4.39,62.3-8.55,59.91-19.42
		c-2.96-11.07-57.48,2.19-63.45,11.62c-3.05-6.77-5.98-13.42-8.8-19.95c10.95,4.14,61.86-8.72,59.48-19.5
		c-2.96-10.96-56.52,1.98-63.03,11.22c-2.13-5.04-4.18-9.97-6.17-14.84c10.94,3.17,60.93-18.62,56.7-29.08
		c-4.72-10.21-54.51,11.03-59.93,21.13c-2.79-6.95-5.39-13.52-7.95-20.22c11.38,2.45,59.85-18.87,55.69-29.15
		c-4.6-10-52.71,10.28-59.1,20.16c-1.92-5.12-3.78-10.17-5.57-15.14c10.68,2.43,57.46-31.15,50.83-40.65
		c-6.7-8.84-49.87,21.73-53.65,32.76c-2.17-6.13-4.24-12.13-6.22-17.99c10.83,2.06,57.08-31.18,50.51-40.66
		c-6.61-8.76-49.09,21.19-53.33,32.21c-2.08-6.31-4.05-12.44-5.92-18.39c12.04-1.46,52.05-31.18,45.94-39.9
		c-5.41-8.06-42.74,16.66-49.82,27.31c-1.76-5.84-3.41-11.48-4.96-16.89c11.38-1.55,48.97-40.19,41.15-48.23
		c-6.81-7.05-39.62,24.06-44.64,35.76c-1.35-4.95-2.61-9.67-3.77-14.17c10.84,0.41,49.02-43.87,40.25-51.55
		c-7.76-6.69-39.6,28.55-43.04,40.53c-1.7-6.86-3.14-13.04-4.37-18.48c11.12-1.23,47.43-43.59,38.93-51.22
		c-7.05-6.54-37.3,25.87-41.81,37.88c-1.01-4.92-1.71-8.63-2.15-11.04c6.08-9.87,1.56-62.92-9.56-62.31
		c-5.17,0.41-8.18,15.74-6.72,34.25c1.25,21.86,7.81,25.27,10.25,41.42c-7.65-10.36-44.78-33.37-49.73-25.29
		c-6.6,9.71,42.79,43.29,52.79,39.35c1.15,5.05,2.48,10.71,4.01,16.93c-8.97-8.86-52.39-24.81-55.97-15.47
		c-4.15,10.8,49.13,32.22,58.99,27.39c1.37,5.3,2.87,10.92,4.51,16.83c-9.78-8-54.18-20.01-56.9-10.44
		c-3.09,10.99,50.2,27.34,60.28,22.45c1.56,5.43,3.23,11.08,5,16.92c-10.24-7.25-56.28-15.49-58.23-5.58
		c-2.05,11.17,51.92,22.55,61.75,16.99c1.7,5.41,3.49,10.97,5.36,16.67c-10.47-6.39-59.3-9.15-60.17,1.31
		c-0.59,11.37,54.61,15.67,63.55,8.8c1.76,5.19,3.58,10.48,5.48,15.87c-10.34-5.67-62.13-1.09-61.5,9.86
		c1.15,11.41,57.19,7.03,64.53-1.35c2.02,5.61,4.12,11.31,6.3,17.12c-9.89-6.06-62.89-1.54-62.27,9.57
		c1.07,11.56,58.79,6.95,65.18-1.9c2.41,6.31,4.84,12.48,7.44,18.98c-10.44-5.58-61.95-0.99-61.32,9.92
		c1.14,11.45,57.62,7,64.73-1.49c1.87,4.57,3.79,9.22,5.78,13.94c-11.43-3.52-60.74,9.16-58.36,19.71
		c2.93,10.77,54.89-1.61,62.28-10.52c2.44,5.68,4.95,11.43,7.57,17.3c-11.03-4.05-61.7,8.79-59.32,19.53
		c2.96,10.97,56.58-1.99,63.06-11.24c2.7,5.94,5.49,11.97,8.38,18.09c-10.27-4.93-63.16,8.2-60.73,19.22
		c2.91,11.23,59.08-2.53,64.02-12.28c2.68,5.61,5.46,11.3,8.3,17.03c-11.15-3.21-61.03,15.19-57.49,25.74
		c4.12,10.57,55.85-7.99,61.41-17.86c3.09,6.14,6.29,12.36,9.56,18.62c-9.94-4.83-63.3,14.49-59.58,25.39
		c4.06,10.97,59.52-9.21,62.63-19.56c3.47,6.57,7.05,13.2,10.72,19.89c-10.73-3.04-60.24,23.21-55.1,33.43
		c5.58,10.02,55.33-16.23,58.73-26.83c41.36,74.42,95.35,155.47,164.99,234.13L764.77,962z"/>
	<path id="_x38_" class="st5" d="M787.32,905.83c-74-23.13-139.17-53.6-194.07-84.81c9.33-0.12,41.65-17.3,38.13-24.34
		c-4.05-7.84-43.65,12.23-45.21,20.27c-3.71-2.15-7.38-4.3-10.99-6.45c8.94-0.47,40.51-23.59,35.83-30.41
		c-5.21-7.12-41.23,18.79-41.55,26.98c-4.54-2.74-9.01-5.49-13.39-8.22c9.09-1,39.59-23.56,34.97-30.2
		c-5.21-6.96-39.94,17.92-41.31,26.21c-4.36-2.77-8.66-5.53-12.85-8.27c8.4-0.01,38.64-30.13,32.63-36.41
		c-6.28-6.3-38.35,25.74-36.73,33.7c-4.04-2.67-8.01-5.33-11.88-7.97c8.68-1.36,37.01-29.9,31.21-36.01
		c-6.25-6.01-36.37,23.9-36.55,32.34c-4.62-3.19-9.13-6.35-13.5-9.48c8.71-1.6,36.65-29.84,30.9-35.89
		c-6.2-5.94-35.83,23.38-36.44,31.92c-3.35-2.43-6.61-4.82-9.8-7.19c8.32-2.22,32.18-35.89,25.35-41.01
		c-7.05-4.77-30.99,28.46-30.55,37.12c-4.52-3.41-8.78-6.64-13.05-9.99c8.33-2.87,31.38-35.62,24.66-40.66
		c-6.89-4.67-30.12,27.27-30.39,36.17c-3.25-2.57-6.42-5.11-9.53-7.63c7.86-2.61,25.02-42.64,17.02-46.2
		c-7.8-3.11-23.79,33.57-21.93,42.19c-3.8-3.12-7.49-6.19-11.06-9.21c7.82-2.91,24.77-42.52,16.81-46.08
		c-7.71-3.08-23.51,32.92-21.95,41.72c-3.82-3.27-7.49-6.47-11.02-9.6c32.08-42.55,9.09-68.58-7.43-6.64c-3.42-3.09-6.7-6.1-9.82-9
		c6.76-5.45,16-45.18,7.79-47.33c-7.17-1.9-16.25,31.07-14.93,40.61c-2.81-2.67-5.47-5.24-7.98-7.7
		c7.18-3.98,14.59-47.58,5.91-49.13c-7.64-1.3-14.49,33.97-12.03,43.08c-3.78-3.78-7.14-7.21-10.06-10.26
		c6.72-5.15,13.67-46.78,5.18-48.4c-7.13-1.48-14.04,31.34-12.26,40.89c-2.59-2.8-4.49-4.92-5.71-6.31
		c0.08-8.77-23.6-41.36-30.56-36.61c-3.19,2.29,0.86,13.4,9.04,24.81c9.36,13.67,14.94,13.31,22.84,22.82
		c-9.01-3.72-42.05-4.1-42.1,3.07c-0.47,8.87,44.65,11.3,49.58,4.84c2.72,2.83,5.79,5.97,9.22,9.4c-9.27-2.23-43.64,4.42-42.3,11.87
		c1.54,8.62,44.43,1.65,48.92-5.33c2.97,2.9,6.12,5.94,9.5,9.14c-9.46-1.35-42.92,8.23-40.93,15.49c2.3,8.33,43.21-1.92,47.82-9.04
		c3.14,2.91,6.42,5.91,9.86,9c-9.46-0.69-42.52,11.98-39.9,19.16c3.04,8.04,42.45-5.7,46.64-13.15c3.21,2.84,6.55,5.74,10,8.7
		c-9.28-0.04-41.99,17.27-38.46,24.38c4.06,7.59,41.5-11.21,44.6-19.15c3.16,2.67,6.43,5.39,9.77,8.14
		c-8.91,0.36-40.68,23.59-35.99,30.44c5.21,6.94,39.8-17.82,41.27-26.12c3.51,2.85,7.08,5.72,10.77,8.63
		c-8.78-0.06-41.33,23.6-36.59,30.55c5.21,7.07,40.81-18.5,41.47-26.73c4.02,3.16,8.02,6.19,12.24,9.39
		c-8.94,0.47-40.51,23.59-35.83,30.41c5.21,6.97,40.06-18,41.34-26.28c3,2.23,6.06,4.49,9.2,6.77
		c-8.78,2.19-35.76,29.69-30.09,35.59c6.11,5.83,34.92-22.51,36.22-31.17c3.8,2.72,7.68,5.47,11.67,8.24
		c-8.73,1.69-36.52,29.82-30.78,35.85c6.21,5.95,35.87-23.42,36.44-31.94c4.07,2.79,8.24,5.61,12.5,8.44
		c-8.58,0.82-37.7,30.01-31.82,36.2c6.28,6.14,37.27-24.74,36.66-32.99c3.93,2.58,7.95,5.18,12.04,7.79
		c-8.48,2.28-33.58,33.71-27.17,39.16c6.8,5.23,33.05-27.02,32.79-35.59c4.4,2.77,8.91,5.54,13.47,8.32
		c-8.33,0.76-35.33,34.14-28.66,39.74c6.92,5.51,34.94-29.24,32.91-37.16c4.81,2.9,9.73,5.8,14.72,8.69
		c-8.14,2.23-29.94,38.59-22.61,43.2c7.53,4.31,29.49-32.15,27.54-40.34c55.89,32.03,122.56,63.41,198.43,87.12L787.32,905.83z"/>
	<path id="_x37_" class="st5" d="M2261.51,544.75c9.88,23.19,16.74,44.15,18.71,55.94c5.63-13.51,11.09-25.97,16.38-37.46
		c-10.74-7.52-43.77-124.6-32.38-128.35c11.01-1.63,38.11,97.83,37.61,117.17c6.08-12.81,11.9-24.31,17.38-34.59
		c-10.22-3.82-19.68-134.25-7.61-134.25c5.11-0.34,11.27,29.58,13.77,66.84c1.59,23.74,1.31,44.71-0.43,56.9
		c7.44-13.37,14.21-24.4,20.17-33.42c-9.49-5.25,6.25-135.78,18.08-133.33c10.62,2.5-1.88,102.47-9.52,120.92
		c17.93-23.38,21.49-32.65,54.73-63.11c64.53-59.47,77.35-45.53,12.53,13.66c-31.36,30.88-44.18,27.58-63.81,57.78
		c15.07-9.72,120.08-33.53,123.91-22.73c2.35,11.79-119.49,37.95-129.57,31.09c-6.23,9.44-13.37,21.12-21.28,35.44
		c13.78-8.53,125.84-21.53,128.44-10.09c0.97,11.98-122.53,24.59-132.08,16.77c-5.7,10.59-11.75,22.49-18.1,35.85
		c15.58-8.12,123.67-20.49,126.32-9.27c0.24,11.93-117.42,23.91-130.13,17.39c-5.59,12.04-11.39,25.16-17.38,39.47
		c15.63-8.11,123.6-20.46,126.25-9.24c0.13,11.9-116.36,23.77-129.66,17.51c-4.89,11.94-9.9,24.68-14.99,38.23
		c14.48-8.38,125.05-21.15,127.68-9.78c0.34,11.95-118.25,24.01-130.48,17.29c-4.65,12.87-9.84,25.74-15.47,37.7
		c14.59-6.47,128.03-2.34,128.83,9.4c-1.36,11.9-121.51,5.8-131.97-2.85c-6.44,13.11-13.46,25.49-21.04,37.1
		c11.03-7.06,131.88,7.21,130.99,19.17c-0.8,12.04-130.01-4.96-133.52-15.34c-9.81,14.58-20.59,28.02-32.66,40.44
		c15.46-2.69,124.7,30.86,122.39,42.43c-4.11,11.28-120.91-26.44-127.35-37.46c-12.82,12.53-26.59,23.47-41.18,32.69
		c16.16,0.54,116.61,52.12,112.39,63.08c-6.03,10.38-114.33-47.16-118.8-59.16c-39.08,23-69.69,25.83-71.01,25.94l-0.64-7.45
		c0.31-0.03,29.75-2.82,66.8-24.33c-12.07-9.78-57.75-115.02-47.42-120.77c11.29-3.22,54.58,100.33,54.06,116.76
		c12.21-7.67,25.87-17.92,39.87-31.55c-11.8-3.73-69.62-113.41-59.1-119.22c11.04-4.55,64.71,101.06,63.14,115.19
		c10.85-11.03,21.82-24.11,32.39-39.6c-12.05-2.72-78.53-107.48-68.5-114.1c10.68-5.22,71.55,93.9,71.99,108.87
		c6.96-10.64,13.71-22.34,20.1-35.25c-10.97,0.95-80.45-108.92-69.87-114.73c10.62-5.46,72.81,95.85,72.21,109.91
		c5.37-11.22,10.57-23.57,15.25-36.45c-13.1-6.48-75.96-105.52-66.47-112.69c10.27-4.71,65.68,84.61,70.14,102.83
		c5.1-13.6,10.1-26.37,14.99-38.36c-11.45-4.33-61.03-118.47-50.06-123.4C2231.2,484.17,2246.88,510.4,2261.51,544.75z"/>
	<path id="_x36_" class="st6" d="M1008.16,565.93c-1.05-8.93-87.16-8.91-98.43-3.64c5.8-9.84,11.65-22.02,16.51-36.62
		c8.05,5.32,100.97-9.88,99.73-18.98c-2.54-8.67-88.58,6.69-98.13,13.94c3.52-11.55,6.38-24.52,8.12-38.98
		c5.8,5.98,99.95-27.73,96.21-36.16c-3.59-8.43-90.92,24.12-95.83,32.79c1.08-10.17,1.62-21.03,1.42-32.65
		c10.06,2.26,94.02-35.61,90.73-44.15c-4.72-7.67-83.14,29.07-90.88,38.6c-0.32-9.78-1.29-20.57-2.64-31.04
		c10.6,0.34,87.14-49.36,82.68-57.32c-5.83-6.76-76.39,40.44-83.39,51.24c-1.27-10.99-2.31-21.4-3.16-31.23
		c11.16-0.34,86.36-49.18,82.04-57.18c-5.79-6.65-74.73,39.35-82.61,50.37c-0.93-11.82-1.57-22.77-1.97-32.9
		c10.85,0.04,86.8-49.28,82.41-57.27c-5.79-6.66-74.81,39.4-82.65,50.41c-0.34-11.3-0.38-21.5-0.21-30.69
		c9.18,2.01,88.83-49.74,83.94-57.52c-5.84-6.83-77.33,41.05-83.8,51.71c0.38-12.5,1.16-22.93,2.09-31.52
		c9.21,1.18,83-59.21,77.24-66.38c-6.44-5.95-69.38,46.8-76.31,58.72c2.78-27.35,12.68-29.66,23.21-61.57
		c23.4-62.86,9.83-67.89-13.29-4.91c-11.98,32.36-11.13,39.8-15.17,62.02c-1.22-15.14-27.68-87.62-35.75-85.54
		c-8.89,2.48,25.98,96.7,34.27,96.96c-0.9,8.21-1.65,18.08-2.04,29.77c-3.13-13.92-44.41-83.01-52.28-79.47
		c-8.2,4.23,43.76,89.57,52.05,88.62c-0.14,8.91-0.08,18.75,0.26,29.59c-6.35-13.26-59.62-71.54-66.48-66.53
		c-6.38,6.58,56.86,74.54,66.84,75.96c0.42,9.66,1.06,20.04,1.95,31.19c-6.59-11.78-70.1-65.12-76.51-59.1
		c-5.68,7.22,67.78,67.43,77.13,66.42c0.86,9.86,1.92,20.29,3.2,31.32c-9.31-10.79-78.33-52.25-83.59-45.42
		c-3.88,8.23,73.3,53.52,84.54,53.41c1.31,10.39,2.1,20.6,2.36,30.1c-4.43-9.73-82.22-56.97-87.47-49.51
		c-5.13,7.66,80.43,58.07,87.57,53.61c0.16,11-0.35,21.32-1.36,30.98c-5.45-9.98-81.6-56.2-86.97-48.88
		c-4.46,8.03,77.23,55.98,86.42,53.66c-1.78,14.22-4.67,26.95-8.2,38.24c-3.8-10.11-77.3-63.26-83.15-56.27
		c-5.08,7.65,72.44,61.97,81.81,60.42c-4.76,14.15-10.47,25.89-16.09,35.37c-5.31-11.3-71.03-66.69-77.52-60.51
		c-4.95,7.57,62.73,63.05,74.41,65.55c-17.66,27.54-36.69,39.72-36.92,39.86l3.03,4.84c0.86-0.54,20.68-13.16,39.22-42.43
		C913.89,573.78,1007.74,575.09,1008.16,565.93z"/>
	<g id="_x35_">
		<path class="st7" d="M669.89,1630.67c-50.23,0-90.96-40.72-90.96-90.96V584.3c0-50.23,40.72-90.96,90.96-90.96h1394.75
			c50.23,0,90.96,40.72,90.96,90.96v955.41c0,50.23-40.72,90.96-90.96,90.96H669.89z"/>
		<rect x="661.21" y="571.26" class="st8" width="1412.12" height="981.49"/>
		<rect x="717.86" y="627.92" class="st9" width="1298.81" height="868.18"/>
		<polygon class="st8" points="2056,1082.4 2056,1059.74 1725.07,1059.74 1483.31,1233.98 888.59,1233.98 886.34,859.86 
			1080.05,1053.56 1112.1,1021.51 929.53,838.94 2029.62,838.94 2029.62,816.28 908.81,816.28 908.81,609.62 863.49,609.62 
			863.49,816.28 863.42,816.28 863.49,827.59 863.49,837 863.54,837.06 864.61,1014.87 687.32,1014.87 687.32,1060.2 864.88,1060.2 
			865.92,1233.98 687.32,1233.98 687.32,1279.31 866.2,1279.31 867.65,1521.62 890.31,1521.48 888.86,1279.31 1465.77,1279.31 
			1465.77,1521.55 1488.43,1521.55 1488.43,1279.31 1712.17,1279.31 1834.45,1336.11 1656.22,1514.33 1688.27,1546.38 
			1878.22,1356.44 2020.07,1422.33 2039.16,1381.22 1722.18,1233.98 1522.07,1233.98 1732.39,1082.4 		"/>
		<path class="st7" d="M1096.07,1496.09L1096.07,1496.09c-21.9,0-39.66-17.76-39.66-39.66v-418.9c0-21.9,17.76-39.66,39.66-39.66
			h556.26V867.27c0-21.9,17.76-39.66,39.66-39.66l0,0c21.9,0,39.66,17.76,39.66,39.66v170.26c0,21.9-17.76,39.66-39.66,39.66
			h-556.26v379.24C1135.73,1478.34,1117.98,1496.09,1096.07,1496.09z"/>
		<g>
			<path class="st10" d="M1742.18,830.93c-0.31,68.47-104.42,68.47-104.71,0C1637.78,762.46,1741.89,762.47,1742.18,830.93z"/>
			<path class="st8" d="M1718.22,830.93c0.54,36.84-57.33,36.84-56.79,0C1660.9,794.09,1718.76,794.09,1718.22,830.93z"/>
			<path class="st10" d="M1806.36,539.6c8.21,98.08-116.54,225.05-116.54,225.05C1387.98,444.18,1786.4,301.22,1806.36,539.6z"/>
			<path class="st8" d="M1754.3,538.12c-1.45,84.75-127.51,84.73-128.94,0C1626.8,453.37,1752.86,453.38,1754.3,538.12z"/>
		</g>
		<g>
			<polygon class="st10" points="1096.08,1114.21 1096.08,1352.35 938.96,1386.35 			"/>
			<polygon class="st11" points="1253.19,1386.35 1096.08,1352.35 1096.08,1114.21 			"/>
		</g>
	</g>
	<g id="_x34_">
		<path class="st10" d="M1372.62,1333.26l-37.61,110.67h690.96l-84.85-143.77c-27.82-47.15-74.79-75.49-125.1-75.49h-442.44
			c-9.13,0-14.02,10.82-7.92,17.62c7.63,8.52,24.63,21.02,47.07,25.43C1395.28,1285.29,1381.36,1307.56,1372.62,1333.26z"/>
		<rect x="1256.43" y="1587.74" class="st12" width="50.81" height="20.63"/>
		<path class="st13" d="M2227.68,1535.22c-1.38,10.75-8.3,20.5-19.02,24.98l-1.51,0.63c-0.01,0.01-0.01,0.01-0.01,0.01l-24.8-57.71
			l2.11-0.81c15.98-6.69,34.37,0.85,41.05,16.84C2227.7,1524.42,2228.36,1529.95,2227.68,1535.22z"/>
		<path class="st14" d="M2227.68,1535.22c-1.38,10.75-8.3,20.5-19.02,24.98l-1.51,0.63c0.31-0.36,13.82-16.17,7.42-35.14
			c-6.47-19.2-32.23-22.56-32.23-22.56l2.11-0.81c15.98-6.69,34.37,0.85,41.05,16.84
			C2227.7,1524.42,2228.36,1529.95,2227.68,1535.22z"/>
		<path class="st13" d="M1259.91,1541.24c4.09,10.04,13.28,17.69,24.79,19.28l1.62,0.22c0.01,0,0.01,0,0.01,0l9.18-62.14l-2.25-0.24
			c-17.17-2.37-33,9.63-35.36,26.8C1257.13,1530.81,1257.91,1536.31,1259.91,1541.24z"/>
		<path class="st14" d="M1259.91,1541.24c4.09,10.04,13.28,17.69,24.79,19.28l1.62,0.22c-0.39-0.27-17.5-12.09-16.18-32.07
			c1.33-20.21,25.37-30.06,25.37-30.06l-2.25-0.24c-17.17-2.37-33,9.63-35.36,26.8C1257.13,1530.81,1257.91,1536.31,1259.91,1541.24
			z"/>
		<circle class="st15" cx="1412.27" cy="1642.16" r="79.13"/>
		<circle class="st16" cx="1412.27" cy="1642.16" r="38.98"/>
		<circle class="st15" cx="2049.82" cy="1642.16" r="79.13"/>
		<circle class="st16" cx="2049.82" cy="1642.16" r="38.98"/>
		<path class="st10" d="M2224.04,1627.07c-3.01,8.71-11.3,15.09-21.2,15.09h-64.4c0-5.14-0.44-10.19-1.28-15.09
			c-7.16-41.76-43.55-73.54-87.35-73.54s-80.18,31.78-87.34,73.54h-0.01c-0.84,4.9-1.28,9.94-1.28,15.09h-460.3
			c0-5.14-0.44-10.19-1.28-15.09h-0.01c-7.16-41.76-43.54-73.54-87.34-73.54c-24.47,0-46.63,9.92-62.67,25.96
			c-16.04,16.04-25.96,38.19-25.96,62.66c-6.46,0-12.59-1.42-18.09-3.96c-14.83-6.84-25.12-21.84-25.12-39.25v-50.33
			c0-72.1,58.45-130.55,130.55-130.55h620.04c155.53,0,187.52,140.84,194.1,199.22C2225.51,1620.71,2225.1,1624.03,2224.04,1627.07z
			"/>
		<path class="st12" d="M1406.07,1433.42l33.24-100.12l0.07-0.2c7.35-19.85,19.19-38,34.25-52.46
			c14.29-13.73,31.64-24.29,50.17-30.55c4.91-1.66,9.97-3.05,15.03-4.1c8.85-1.88,17.98-2.83,27.1-2.83h248.8
			c0.46,0,0.93,0,1.4,0.01c44.97,0.47,86.65,23.85,111.51,62.54l0.16,0.24l73.83,127.47H1406.07z"/>
		<path class="st17" d="M1976.08,1418.06h-548.76l27.29-80.67c6.78-17.98,17.41-33.64,30.73-46.2c12.84-12.1,28.17-21.3,44.95-26.86
			c4.38-1.46,8.87-2.67,13.44-3.6c7.89-1.64,16.01-2.49,24.28-2.49h245.09c0.38,0,0.77,0,1.15,0.01
			c40.24,0.38,77.71,20.97,99.99,55.01L1976.08,1418.06z"/>
		<path class="st18" d="M1592.44,1418.06h-55.8l-51.3-126.87c12.84-12.1,28.17-21.3,44.95-26.86L1592.44,1418.06z"/>
		<path class="st18" d="M1634.97,1418.06h-27.63l-63.62-157.33c7.89-1.64,16.01-2.49,24.28-2.49h2.34L1634.97,1418.06z"/>
		<polygon class="st18" points="1836.34,1418.06 1780.53,1418.06 1715.91,1258.24 1771.72,1258.24 		"/>
		<path class="st18" d="M1878.86,1418.06h-27.63l-64.62-159.82h26.48c0.38,0,0.77,0,1.15,0.01L1878.86,1418.06z"/>
		<rect x="1690" y="1461.85" class="st12" width="36.95" height="18.36"/>
		<rect x="1562.51" y="1461.85" class="st12" width="36.95" height="18.36"/>
		<path class="st12" d="M2155.54,1627.07c-15.5-120.1-195.98-120.03-211.46,0h-308.5v-75.96c0-45.2,16.12-89.05,45.39-123.49
			l2.19-2.57v-180.21h-18.36v173.51c-30.71,37.34-47.58,84.35-47.58,132.76v75.96H1518c-10.46-77.92-87.46-104.18-145.79-82.76
			c0.8-36.63,9.59-67.09,25.55-88.33c12.48-16.62,25.15-21.95,25.28-22l-0.07,0.03l-6.69-17.09c-0.67,0.26-16.71,6.7-32.24,26.8
			c-13.8,17.85-30.25,53.68-30.25,109.08l0.7-0.11c-27.5,16.17-47.69,44.86-48.94,85.52c5.51,2.54,11.63,3.96,18.09,3.96
			c3.15-117.34,174.56-116.37,177.25,0h116.34v0h18.36v0h325.61c1.81-116.42,175.47-116.38,177.25,0h64.4
			c9.9,0,18.19-6.38,21.2-15.09H2155.54z"/>
		<path class="st12" d="M2118.66,1476.26h-99.16c-2.76,0-5-2.24-5-5c0-2.76,2.24-5,5-5h99.16c2.76,0,5,2.24,5,5
			C2123.66,1474.03,2121.42,1476.26,2118.66,1476.26z"/>
		<path class="st12" d="M2118.66,1494.36h-99.16c-2.76,0-5-2.24-5-5c0-2.76,2.24-5,5-5h99.16c2.76,0,5,2.24,5,5
			C2123.66,1492.12,2121.42,1494.36,2118.66,1494.36z"/>
		<path class="st12" d="M2118.66,1512.45h-99.16c-2.76,0-5-2.24-5-5s2.24-5,5-5h99.16c2.76,0,5,2.24,5,5
			S2121.42,1512.45,2118.66,1512.45z"/>
	</g>
	<g id="_x33_">
		<path class="st19" d="M380.12,1717.09l-0.99-0.51c0,0.69-0.85,3.09-1.54,3.09l-29.17,0.6c-0.69,0-1.12-1.3-1.12-1.99l-2.49-0.71
			c0-4.37,0.36-5.95,2.29-9.33c7.09-9.42-1.37-51.58-1.13-62.59c-1.75-3.01,30.71-0.65,31.17-1.36c0.73,0,1.3,0.62,1.25,1.35
			l-3.82,48.16C372.86,1702.94,379.88,1708.47,380.12,1717.09z"/>
		<path class="st19" d="M524.39,1721.29h-58.1c-5.07-0.2-5.03-5.38-4.1-9.39c3.2-14.46-2.46-47.66-3.5-62.53
			c-0.28-2.72,1.86-5.09,4.59-5.09c42.87-0.44,28.88-3.87,25.56,42.38c-2.53,16.15,16.73,19.23,27.72,21.02
			C523.79,1708.2,535.89,1718.07,524.39,1721.29z"/>
		<path class="st20" d="M459.98,1715.26c0.16,2.85,1.57,6.1,4.87,6.03c0,0,60.26,0,60.26,0c14.21-5.27-7.08-24.13-34.91-24.02
			C470.42,1702.7,459.31,1687.28,459.98,1715.26z"/>
		<path class="st20" d="M349.44,1721.29h25.76c12.55-1.71,3.51-25.8-12.88-24.06C345.89,1695.15,336.9,1719.6,349.44,1721.29z"/>
		<path class="st21" d="M510.75,1713.13c0.51,0,0.98-0.3,1.19-0.8c2.32-5.71,6.49-7.46,6.67-7.53c3.26-5.14-6.21-1.48-9.04,6.57
			C509.21,1712.19,509.86,1713.15,510.75,1713.13z"/>
		<path class="st21" d="M500.79,1711.93c0.55,0,1.05-0.35,1.22-0.9c2.05-6.62,7.81-9.68,7.87-9.71c2.95-5.97-8.05,0.42-10.31,8.95
			C499.31,1711.08,499.95,1711.94,500.79,1711.93z"/>
		<path class="st21" d="M489.47,1710.54c0.53,0,1.03-0.33,1.21-0.86c2.39-6.87,7.91-10.62,7.97-10.65
			C501.92,1690.2,483.88,1708.18,489.47,1710.54z"/>
		<path class="st21" d="M353.09,1704.89c7.15-4.34,18.13-0.43,18.17-0.11c7.47-1.61-10.2-7.92-18.82-2.27
			C351.31,1703.11,351.83,1704.94,353.09,1704.89z"/>
		<path class="st22" d="M529.33,1715.26h-69.35c0.26,2.12,0.84,4.17,1.9,6.03h63.23C528.23,1721.29,530.43,1718.17,529.33,1715.26z"
			/>
		<path class="st22" d="M349.44,1721.29h25.76c3.28,0,5.91-2.76,5.71-6.03h-37.18C343.53,1718.53,346.17,1721.29,349.44,1721.29z"/>
		<path class="st23" d="M493.37,1131.92c0,0,6.31-17.7-8.71-26.31l-11.4,5.9L493.37,1131.92z"/>
		<path class="st4" d="M482.92,1274.76c56.71,43.29,127.71,33.62,167.95,3.51l2.1-20.58c-92.81,7.19-115.35-37.31-175.09-64.32
			C477.89,1193.36,482.29,1273.37,482.92,1274.76z"/>
		<path class="st24" d="M340.37,1664.32c0.1,4.04,0.21,8.11,0.34,12.25c0,0,21.85,14.42,43.39,4.34
			c8.43-45.89,26.4-144.21,44.55-262.76c0.23-3.49,32.88,158.95,21.61,266.52c0,0,24.23,6.25,46.09-1.95
			c15.36-54.88,15.89-154.47,4.92-362.83c0,0-65.63-3.7-113.37-27.37C346.77,1340.25,335.4,1584.67,340.37,1664.32z"/>
		<path class="st19" d="M472.22,1191.23c2.72-14.39,9.33-40.27-1.49-46.65c-7.62-4.17-18.36,1.11-17.41,10.65
			c0.81-0.34-1.22,26.06-4.06,33.01C426.82,1191.04,487.5,1222.94,472.22,1191.23z"/>
		<path class="st25" d="M453.3,1154.01c-0.01,0.4-0.01,0.82,0.02,1.22c0.59-0.26-0.35,14.34-2.09,24.75
			c9.04,6.1,20.28,5.98,22.34,5.91c1.64-15.32,7.51-34.27-2.84-41.31C463.64,1140.03,453.36,1145.45,453.3,1154.01z"/>
		<path class="st19" d="M439.54,1141.82c-0.07,10.47,1.43,22.55,8.35,30.65h0.01c0.28,0.33,0.56,0.63,0.87,0.94
			c0,0.01,0.01,0.01,0.01,0.02c10.46,9.92,27.05,11.68,40.3,4.06h0.01c10.66-7.06,15.54-18.15,12.19-27.9
			c-2.29-5.8-7.35-11.41-7.91-17.69C489.95,1093.88,439.77,1101.3,439.54,1141.82z"/>
		<path class="st26" d="M479.51,1142.09c1.23-1.61-1.33-3.51-2.52-1.86C475.76,1141.85,478.32,1143.74,479.51,1142.09z"/>
		<path class="st26" d="M492.85,1142.1c1.23-1.61-1.33-3.51-2.52-1.86C489.1,1141.85,491.67,1143.75,492.85,1142.1z"/>
		<path class="st25" d="M439.54,1141.82c-0.07,10.47,1.43,22.55,8.35,30.65h0.01c0.28,0.33,0.56,0.63,0.87,0.94
			c-8.21-16.43-6-19.82-2.3-31.25c12.09-8.6,11.66-20.34,22.98-20.29c11.32,0.04,20.56-1.5,20.56-1.5
			C477.32,1093.34,439.37,1108.98,439.54,1141.82z"/>
		<path class="st26" d="M486.98,1154.8c2.58-0.07,5.89-1.25,3.1-3.94c-2.65-2.07-3.77-8.48-3.79-8.54
			c-2.64-2.45,0.04,7.16,3.06,9.47c2.05,1.79-2.94,2.34-4.79,1.32C481.88,1153.53,485.83,1155.14,486.98,1154.8z"/>
		<path class="st27" d="M364.34,1363.47c31.77,24.04,107.15,30.3,138.88,18.81c10.69-4.53,12.19-40.55,10.95-75.93
			c-1.9-47.16-13.39-81.25-35.16-112.76c-0.27-0.11-4.4-1.95-6.78-2.35c0.11,4.31-0.88,16.76-22.97-3c-0.1,0.08-6.59-0.79-8.63,0.08
			c-2.12,1.61-26.03,17.17-26.64,19.7c-1.8,7.57-9.88,26.29-18.71,48.11c-10.21,25.52-20.68,51.67-25.17,75.57
			C368.36,1341.64,358.03,1354.1,364.34,1363.47z"/>
		<path class="st23" d="M437.73,1127.69c3.56-29.97,22.09-29.06,22.09-29.06l0,0c15.95-21.24,51.51-10.6,36.7,13.28
			c-8.4,14.7-29.88-1.69-42.56,17.15c-5.1,7.57-8.25,12.24-17.09,16.12C436.87,1145.19,435.71,1135.8,437.73,1127.69z"/>
		<path class="st19" d="M432.19,1145.88c0.36,11.92,15.4,11.3,14.77-0.61C446.6,1133.35,431.57,1133.97,432.19,1145.88z"/>
		<path class="st26" d="M486.6,1163.31c2.13,0.21,4.05-0.88,2.11-1.41c-0.24,0.06-6.03,1.55-12.1-4.08
			c-0.24-0.22-0.61-0.21-0.84,0.03C477.56,1162.37,484.86,1163.28,486.6,1163.31z"/>
		<path class="st4" d="M440.96,1188.47c7.27,12.4,39.38,31.72,38.05,5.13c-0.27-0.13-4.4-1.95-6.78-2.36
			c0.05,0.7,1.31,18.99-22.97-3.01C449.29,1188.42,442.78,1187.25,440.96,1188.47z"/>
		<path class="st28" d="M482.67,1674.27c25.46-125.31-1.42-286.81-5.49-288.01c-2.09,0.97,21.33,163.3,5.16,288.05
			c-9.41,1.16-21.01,0.98-30.8-4.07c-0.39,4.84-0.82,9.66-1.28,14.44c0,0,24.23,6.25,46.09-1.95c0,0,1.44-4.18,3.7-12.49
			C500.06,1670.24,492.64,1672.99,482.67,1674.27z"/>
		<path class="st28" d="M364.56,1671.82c21.46-136.2,44.78-290.36,41.79-292.69c-3.1,0.44-26.93,157.38-42.18,292.65
			c-7.25-0.71-15.57-2.76-23.8-7.45c0.1,4.04,0.21,8.11,0.34,12.25c0,0,21.85,14.42,43.39,4.34c0,0,0.71-3.77,1.97-10.68
			C386.08,1670.24,376.93,1672.96,364.56,1671.82z"/>
		<path class="st4" d="M399.3,1200.72c0,0-32.24,25.49-39.56,67.36c-11.39,65.16,19.59,100.74,85.92,118.77c0,0,2.08-8.2,11-10.82
			c0,0-31.75-24.52-39.75-53.84c-8-29.33-4.13-71.63,11.13-88.26C428.04,1233.93,416.07,1206.51,399.3,1200.72z"/>
		<path class="st29" d="M421.53,1191.63c7.16-7.73,20.01-8.28,22.25-0.96c7.07,23.12,17.35,44.04,20.82,50.84
			c1.04-0.68,2.47-1,3.68-1.05c16.51-23.59,12.81-45.53,12.81-45.53c10.26-0.7,16.98,3.26,20.63,9.51
			c17.82,6.54,15.67,20.6-0.63,31.18c-3.8,8.38-10.24,15.88-18.83,19.91c6.23,14.28,13.76,36.84,5.2,41.17
			c-3.86,3.65-13.41,5.3-13.64-5.35c-0.2-8.81-0.67-22.22-1.75-30.52c-0.88,0.12-1.86,0.06-2.98-0.23c0.01,0-1.27,29.46,3.59,47.89
			c4.86,18.42-17.95,14.92-25.43,8.88c-5.87-4.74-0.73-42.19,7.82-62.43c-5.17-2.82-10.44-7.02-15.36-11.92l0,0.01
			C430.42,1233.59,366.2,1197.41,421.53,1191.63z"/>
		
			<rect x="349.04" y="1336.66" transform="matrix(0.8074 -0.59 0.59 0.8074 -691.2794 579.0817)" class="st10" width="384.65" height="23.49"/>
		
			<rect x="366.69" y="1390.73" transform="matrix(0.8074 -0.59 0.59 0.8074 -737.4354 545.8329)" class="st12" width="201.33" height="23.49"/>
		
			<ellipse transform="matrix(0.7071 -0.7071 0.7071 0.7071 -577.3693 911.2923)" class="st30" cx="811.34" cy="1152.59" rx="141.19" ry="141.19"/>
		<path class="st30" d="M955.35,1203.92c-4.96,13.98-11.96,27.31-20.95,39.49l-8.39-8.39l-8.44-8.44l-180.21-180.21l-16.84-16.84
			c0.54-0.39,1.08-0.78,1.62-1.18c11.91-8.55,24.64-15.14,37.81-19.83l9.26,9.26l9.52,9.52h0.01l157.83,157.83l9.55,9.55
			L955.35,1203.92z"/>
		<path class="st30" d="M920.32,1259.91c-6,6.09-12.61,11.76-19.78,16.91c-12.27,8.81-25.41,15.53-39.01,20.25l-9.3-9.3l-9.58-9.58
			l-156.91-156.92l-9.54-9.53l-9.35-9.35c7.68-22.25,20.34-42.28,37.17-58.79l16.61,16.61L903.7,1243.3l8.32,8.32L920.32,1259.91z"
			/>
		<path class="st12" d="M935.57,1063.4c-77.96-110.67-255.43-67.45-275.14,64.42c-22.05,110.75,97.57,209.38,201.1,169.26
			C955.51,1266.39,996,1144.64,935.57,1063.4z M936.57,1185.14c-10.89,44.79-49.22,82.61-93.93,93.05
			c-125.88,31.81-215.78-126.15-122.01-217.98C813.22,968.93,969.75,1059.61,936.57,1185.14z"/>
		<path class="st19" d="M664.19,1276.77c5.97,4.82,11.25-3.5,2.9-4.43l0.11,0.08C663.93,1269.87,661.07,1274.45,664.19,1276.77z"/>
		<path class="st19" d="M668.39,1273.74c7.74,4.17,9.97-6.3,2.46-4.9c0.17,0.01-0.71-0.18-0.56-0.16
			C666.54,1266.81,665.05,1272.19,668.39,1273.74z"/>
		<path class="st19" d="M672.88,1270.71l2.88,0.55c4.05,0.63,3.51-5.27,0.12-5.69c0,0-2.88-0.55-2.88-0.55
			C668.96,1264.39,669.49,1270.29,672.88,1270.71z"/>
		<path class="st19" d="M676.37,1267.47l2.88,0.55c4.05,0.63,3.51-5.27,0.12-5.69c0,0-2.88-0.55-2.88-0.55
			C672.45,1261.15,672.98,1267.04,676.37,1267.47z"/>
		<path class="st19" d="M480.05,1379.92l-5.65,4.07c0.03,0.04,0.05,0.08,0.08,0.12c2.43,3.72,5.72,6.8,9.57,9.03
			c3.72,2.16,7.38,4.29,11.48,5.96c5.38,8.06-16.64-1.69-19.38-2.25c-0.02,0.05-0.02,0.04-0.05,0.1
			c5.05,4.42,10.37,8.56,16.03,12.18c3.63,9.63-17.62-6.57-20.16-8.02c-0.02,0.02-0.01,0.02-0.03,0.04
			c3.99,5.02,8.64,9.52,13.74,13.43c2.8,10.08-17.43-8.13-19.39-10.36c-0.02,0.01-0.05,0.02-0.07,0.03c2.54,4.45,5.67,8.56,9,12.45
			c1.33,9.92-13.88-8.61-15.39-10.84c-1.6-0.89-9.47-8.31-14.17-18.98c-1.54-3.5,7.87-12.77,11-10.82c2.35,1.47,9.95,1.47,11.6,1.95
			C472.1,1378.52,476.07,1378.41,480.05,1379.92z"/>
		<path class="st26" d="M472.58,1138.04c-0.14,0-0.28-0.05-0.4-0.15c-0.24-0.22-0.25-0.59-0.04-0.83c3.55-3.86,8.55-3.6,8.76-3.59
			c0.32,0.02,0.57,0.3,0.55,0.62c-0.02,0.32-0.31,0.57-0.62,0.55c-0.04,0-4.67-0.23-7.83,3.21
			C472.89,1137.98,472.73,1138.04,472.58,1138.04z"/>
		<path class="st26" d="M493.18,1136.34c-0.13,0-0.26-0.04-0.36-0.13c-0.03-0.02-2.76-2.14-6.05-1.58
			c-0.32,0.05-0.62-0.16-0.68-0.48c-0.05-0.32,0.16-0.62,0.48-0.68c3.81-0.64,6.84,1.72,6.97,1.82c0.25,0.2,0.3,0.57,0.1,0.82
			C493.52,1136.26,493.35,1136.34,493.18,1136.34z"/>
		<path class="st26" d="M442.83,1141.78c0.41-1.21-3.35-2.74-6.07-1.36c-1.39,0.62-3.25,5.66-1.2,8.49c0.35,0,0.64-0.32,0.59-0.67
			c-0.32-2.48-0.21-4.36,0.31-5.57c0.05,0.02,0.09,0.05,0.15,0.07c0.16,0.04,3.92,0.93,4.88,6.29c0.06,0.32,0.33,0.54,0.64,0.54
			c0.04,0,0.08,0,0.12-0.01c0.36-0.06,0.59-0.4,0.53-0.76c-0.95-5.32-4.4-6.87-5.53-7.24c0.06-0.05,0.1-0.1,0.16-0.14
			C439.99,1139.95,441.9,1142.82,442.83,1141.78z"/>
	</g>
	<g id="_x32_">
		<path class="st23" d="M1310.96,208.96c0,0,8.69-16.79,35.19-11.83c26.5,4.96,32.75,38.58,41.74,53.88
			c19.05,32.42,24.76,66.87,14.86,83.41c-10.99,18.38-35.26,11.19-70.71,7.9c-37.83-3.52-53.67-36.35-30.14-81.49L1310.96,208.96z"
			/>
		<path class="st4" d="M1321.95,287.02c-10.36,15.19-16.98,89.27-17.2,95.03c-12.19-0.9-41.47-3.06-53.96-3.99
			c-3.53-27.12,32.43-82.73,65.22-89.32c0-0.01,0-0.01,0-0.01C1319.71,287.48,1321.95,287.02,1321.95,287.02z"/>
		<path class="st19" d="M1168.3,695.42l52.69-0.58c-0.14-8.42-2.38-25.42-0.71-35.03c0,0-22.74,2.93-22.74,2.93
			c0.63,4.62,2.03,14.63-5.63,17.02c-9.93,3.1-20.73,2.15-26.93,9.79C1163.37,692.11,1165.27,695.45,1168.3,695.42z"/>
		<path class="st29" d="M1222.53,689.75c-0.2,1.78-0.67,3.52-1.54,5.09l-53.2,0.58c-2.59,0.03-4.49-2.5-3.66-4.95
			c1.96-5.72,8.88-14.08,33.39-15.63c0,0,8.37,2.39,22.06-0.24C1219.57,674.6,1223.33,682.51,1222.53,689.75z"/>
		<path class="st21" d="M1179.77,688.42c-0.42,0-0.82-0.25-0.99-0.66c-2-4.79-5.53-6.22-5.68-6.28c-2.82-4.29,5.23-1.3,7.67,5.45
			C1181.07,687.62,1180.52,688.44,1179.77,688.42z"/>
		<path class="st21" d="M1188.13,687.32c-0.46,0-0.88-0.29-1.03-0.75c-1.79-5.55-6.66-8.07-6.71-8.1c-2.57-5,6.79,0.28,8.76,7.44
			C1189.39,686.59,1188.85,687.33,1188.13,687.32z"/>
		<path class="st21" d="M1197.65,686.04c-0.44,0-0.86-0.27-1.01-0.71c-2.08-5.76-6.76-8.86-6.81-8.89c-2-5.25,6.53,1.05,8.83,8.16
			C1198.93,685.29,1198.38,686.06,1197.65,686.04z"/>
		<path class="st31" d="M1164.16,690.39l58.37-0.64c-0.2,1.78-0.67,3.52-1.54,5.09l-53.2,0.58
			C1165.16,695.45,1163.25,692.85,1164.16,690.39z"/>
		<path class="st4" d="M1335.21,494.27c-25.93-1.09-71.11-15.37-90.59,17.62c-21.33,36.03-16.11,112.47-13.95,149.41
			c-28.47,9.17-43.77,0-43.77,0c-12.13-75.62-52.07-247.85,81.49-223.96c0-0.01,89.57-0.01,89.57-0.01
			C1372.93,467.87,1359.54,493.76,1335.21,494.27z"/>
		<path class="st19" d="M1231.48,695.41l52.69-0.58c-0.14-8.42-2.38-25.42-0.71-35.03c0,0-22.74,2.94-22.74,2.94
			c0.63,4.62,2.21,14.63-5.63,17.02c-9.95,3.04-20.73,2.15-26.93,9.79C1226.55,692.11,1228.45,695.45,1231.48,695.41z"/>
		<path class="st29" d="M1285.71,689.74c-0.2,1.78-0.67,3.52-1.54,5.09l-53.2,0.58c-2.59,0.03-4.49-2.5-3.66-4.95
			c1.96-5.72,8.88-14.08,33.39-15.63c0,0,8.37,2.39,22.06-0.24C1282.75,674.6,1286.51,682.51,1285.71,689.74z"/>
		<path class="st21" d="M1242.95,688.42c-0.42,0-0.82-0.25-0.99-0.66c-2-4.79-5.53-6.22-5.68-6.28c-2.82-4.29,5.23-1.3,7.67,5.45
			C1244.25,687.62,1243.7,688.44,1242.95,688.42z"/>
		<path class="st21" d="M1251.31,687.32c-0.46,0-0.88-0.29-1.03-0.75c-1.78-5.55-6.66-8.07-6.71-8.1c-2.57-5,6.79,0.28,8.76,7.44
			C1252.57,686.59,1252.03,687.33,1251.31,687.32z"/>
		<path class="st21" d="M1260.83,686.04c-0.44,0-0.86-0.27-1.01-0.71c-2.08-5.76-6.76-8.86-6.81-8.89c-2-5.25,6.53,1.05,8.83,8.16
			C1262.11,685.28,1261.56,686.05,1260.83,686.04z"/>
		<path class="st31" d="M1227.34,690.38l58.37-0.64c-0.2,1.78-0.67,3.52-1.54,5.09l-53.2,0.58
			C1228.34,695.45,1226.43,692.85,1227.34,690.38z"/>
		<path class="st27" d="M1275.67,437.33l-7.66,55.84c-33.49,13.19-35.74,49.36-38.8,89.03
			C1213.7,520.92,1214.89,458.04,1275.67,437.33z"/>
		<path class="st4" d="M1368.96,496.86c-27.14,16.71-54.24-1.52-73.33,37.01c-15.4,33.74-6.77,98.2-2.54,127.43
			c-28.47,9.17-43.77,0-43.77,0c-16.88-65.23-55.48-216.82,53.6-223.96c29.87-0.95,69.12-0.69,95.52-2.28
			C1398.45,435.06,1405.78,474.19,1368.96,496.86z"/>
		<path class="st4" d="M1398.98,419.63c2.31,16.52-1.04,35.73-1.04,35.73c-35.27-11.21-67.32-12.25-120.89-19.73
			c33.83-101.33-44.53-30.43,44.91-148.61c0.21,0.02,21.94,1.98,22.14,2C1369.24,307.93,1385.44,333.01,1398.98,419.63z"/>
		<path class="st27" d="M1276.26,359.3c-0.52,0-0.94-0.45-0.89-0.97c1.78-14.8,17.46-33.99,19.52-32.96
			c1.41,1.81-16.68,17.7-17.74,33.12C1277.11,358.95,1276.72,359.3,1276.26,359.3z"/>
		<polygon class="st32" points="1182.51,443.13 1301.05,443.13 1277.45,356.23 1159.62,356.23 		"/>
		<rect x="1182.51" y="442.7" class="st33" width="118.55" height="5.9"/>
		<polygon class="st34" points="1275.67,356.23 1279.91,356.23 1303.03,442.7 1359.29,442.7 1359.29,448.6 1299.08,448.6 
			1299.08,443.32 		"/>
		<path class="st19" d="M1383.08,305.85c27.33,20.48,41.92,57.34,34.71,90.86c-2.77,18.83-14.65,36.74-33.23,42.07
			c-9.18,3.67-51.98,9.57-49.98-5.62c0.68-3.64,3.91-4.99,7.04-5.96c5.16-1.82,10.48-3.83,15.4-6.07
			c8.81-4.57,20.14-8.86,22.06-18.75c4.08-23.1-5.38-45.68-22.64-60.76c0.03,0.02-0.08-0.07,0.17,0.12
			C1333.21,324.3,1359.54,288.64,1383.08,305.85z"/>
		<path class="st4" d="M1399.45,434.65c-13.91,6.21-27.09,8.12-37.22,8.49c0,0,2.34-15.12-8.58-21.34
			c61.54-46.77-26.35-66.45-9.47-135.17C1410.16,287.8,1478.28,387.81,1399.45,434.65z"/>
		<path class="st19" d="M1308.46,442.7c0,0,5.28-18.46,36.8-16.33l6.6,16.33H1308.46z"/>
		<path class="st27" d="M1369.54,442.62c-4.51,0.5-7.31,0.51-7.31,0.51s2.34-15.12-8.58-21.34c0,0,2.69-1.75,6.2-4.85
			C1359.85,416.94,1371.82,425.73,1369.54,442.62z"/>
		<path class="st27" d="M1359.29,419.52c-0.8,0.02-1.22-1.06-0.59-1.57c27.33-24.35,13.94-50.12-2.31-66.82
			c-0.8-0.82,0.54-2.1,1.32-1.22C1374.99,367.19,1388.1,395.74,1359.29,419.52z"/>
		<path class="st27" d="M1368.96,442.71c-5.11-2.98,14.35-1.49,29.15-8.49c0.46-0.19,0.98,0.03,1.17,0.49
			c0.19,0.46-0.03,0.98-0.49,1.17C1383.5,442.16,1369.16,442.71,1368.96,442.71z"/>
		<path class="st35" d="M1350.27,314.27c-0.63,4.72-5.15,6.2-6.28,5.95c-15.87-6.78-4.58,14.64-11.11,16.82
			c-5.49,1.83-6.14-5.33-10.93-5.72c-6.95-0.57-8.36,3.22-10.8,0.92c-3.4-3.2,4.83-8.8,3.77-14.53c-0.74-4.02-8.74,0.02-8.64-8.26
			c0.13-8.14,9.44-20.33,9.73-20.7c0-0.01,0-0.01,0-0.01c5.86-3.27,18.62-1.78,24.41-1.71c0.09-0.58,3.74-0.4,3.74-0.4
			s2.55-0.56,5.01,0.37C1350.4,293.61,1351.53,307.18,1350.27,314.27z"/>
		<path class="st19" d="M1322.49,279.15l-0.54,7.87c0,0-0.74,7.57-0.74,21.65c0,19.79,4.89,17.49,11.67,3.66
			c3.72-7.6,11.29-25.09,11.29-25.09s-0.03-5.18,0.38-8.35L1322.49,279.15z"/>
		<path class="st25" d="M1348.86,256.61c-0.09,0.37-0.19,0.75-0.32,1.11c-0.47-0.39-3.18,12.71-4.16,22.7
			c-9.47,5.55-20.42,4.81-22.3,4.23c0.51-14.78,1.75-36.89,13.13-41.01C1342.84,241.23,1350.92,248.75,1348.86,256.61z"/>
		<path class="st23" d="M1320.17,207.94c-28.59-3.43-33.13,41.7-13.7,58.31L1320.17,207.94z"/>
		<path class="st19" d="M1353.88,239.74c1.38,9.86,1.47,21.41-4.03,29.91l-0.01,0c-15.04,24.6-64.82,8.74-51.18-20.43
			c2-3.72,3.13-8.25,3.28-12.09C1302.38,196.84,1349.9,205.3,1353.88,239.74z"/>
		<path class="st26" d="M1316.26,244.98c-1.36-1.37,0.82-3.47,2.14-2.07C1319.76,244.28,1317.58,246.39,1316.26,244.98z"/>
		<path class="st26" d="M1303.69,246.66c-1.36-1.37,0.82-3.47,2.14-2.07C1307.19,245.96,1305.02,248.06,1303.69,246.66z"/>
		<path class="st26" d="M1311.18,257.83c-2.51,0.4-6.16-0.25-3.78-3.27c2.24-2.28,2.5-8.45,2.5-8.52c0.02-0.72,1.16-0.69,1.13,0.04
			c-0.01,0.27-0.28,6.67-2.82,9.26c-0.29,0.29-0.59,0.7-0.38,0.95c0.6,0.71,3.43,0.83,5.06-0.31c0.25-0.18,0.6-0.12,0.78,0.14
			C1314.09,257.31,1312.06,257.56,1311.18,257.83z"/>
		<path class="st25" d="M1353.88,239.74c1.38,9.86,1.47,21.41-4.03,29.91l-0.01,0c2.54-6.37,1.59-18.57,1.59-18.57l-3.51-4.48
			c-35.84-0.48-41.11-27.52-41.11-27.52C1322.55,197.91,1352.01,217.02,1353.88,239.74z"/>
		<path class="st23" d="M1309.55,215.68c0,0,5.33,26.63,37.77,28.24l8.69-9.01C1360.05,211.73,1332.5,188,1309.55,215.68z"/>
		<path class="st19" d="M1361.3,242.64c1.15,11.27-13.09,12.57-13.99,1.27C1346.16,232.64,1360.41,231.35,1361.3,242.64z"/>
		<path class="st26" d="M1357.95,239.73C1357.95,239.73,1357.95,239.73,1357.95,239.73c-1.45-4.47-10.05,0.3-6.39,0.47
			c0.01-0.2,3.82-2.48,5.01-0.5c-3.75,1.77-5.01,8.77-2.83,6.51c0-0.04,0.46-4.03,3.41-5.53
			C1358.61,250.86,1359.95,243.79,1357.95,239.73z"/>
		<path class="st35" d="M1356.94,249.38c0.51,1.56-1.96,2.32-2.41,0.74C1354.02,248.56,1356.48,247.8,1356.94,249.38z"/>
		<path class="st27" d="M1321.22,342.22c0.05,3.26-5.08,3.27-5.03,0C1316.14,338.95,1321.27,338.95,1321.22,342.22z"/>
		<path class="st27" d="M1316.28,359.94c0.05,3.27-5.08,3.27-5.03,0C1311.19,356.67,1316.32,356.67,1316.28,359.94z"/>
		<path class="st27" d="M1316.28,375.89c0.05,3.27-5.08,3.27-5.03,0C1311.19,372.62,1316.32,372.62,1316.28,375.89z"/>
		<path class="st27" d="M1229.78,648.61c0.47,7.91,0.89,12.69,0.89,12.69c-28.47,9.17-43.77,0-43.77,0s-0.8-3.97-2.03-10.82
			C1185.21,650.65,1203.11,659.45,1229.78,648.61z"/>
		<path class="st27" d="M1293.09,661.29c-28.47,9.17-43.77,0-43.77,0s-1.04-3.66-2.65-9.99c0,0,15.78,8.16,44.94,0
			C1292.47,657.56,1293.09,661.29,1293.09,661.29z"/>
		<path class="st25" d="M1310.18,442.51c-5.6,0.17,14.79-13.82,20.87-10.4c0.05,0.49-0.31,0.93-0.8,0.98
			C1318.77,434.3,1311.15,442.48,1310.18,442.51z"/>
		<path class="st25" d="M1318.82,442.83c-4.25-1.81,8.95-4.92,15.49-6.69c0.48-0.1,0.96,0.21,1.06,0.7c0.1,0.48-0.21,0.96-0.7,1.06
			C1327.7,439.33,1319.52,442.75,1318.82,442.83z"/>
		<path class="st26" d="M1320.93,240.42c-0.14,0-0.28-0.04-0.39-0.14c-3.58-2.8-6.83-1.89-6.97-1.85c-0.34,0.1-0.69-0.09-0.79-0.43
			c-0.1-0.34,0.09-0.69,0.43-0.79c0.16-0.05,4-1.16,8.12,2.07c0.28,0.22,0.33,0.62,0.11,0.9
			C1321.31,240.33,1321.12,240.42,1320.93,240.42z"/>
		<path class="st26" d="M1302.21,241.96c-0.12,0-0.25-0.04-0.36-0.11c-0.29-0.2-0.37-0.59-0.17-0.89c0.08-0.12,2.07-3.02,5.38-2.89
			c0.35,0.01,0.63,0.31,0.61,0.66c-0.01,0.35-0.31,0.63-0.66,0.61c-2.6-0.08-4.26,2.31-4.28,2.33
			C1302.61,241.86,1302.41,241.96,1302.21,241.96z"/>
		<path class="st26" d="M1315.98,263.85c-0.83,0-1.56-0.3-2.03-0.9c-0.99-1.28-0.34-3.39,1.49-4.8c1.82-1.41,4.03-1.51,5.02-0.23
			c0,0,0,0,0,0c0.99,1.28,0.34,3.39-1.49,4.8C1318,263.47,1316.93,263.85,1315.98,263.85z M1318.42,258.31
			c-0.63,0-1.44,0.26-2.2,0.85c-1.32,1.02-1.72,2.41-1.26,3.01c0.46,0.6,1.91,0.56,3.23-0.46c1.32-1.02,1.72-2.41,1.26-3.01l0,0
			C1319.25,258.45,1318.88,258.31,1318.42,258.31z"/>
	</g>
	<g id="_x31_">
		<path class="st29" d="M2336.6,1264.55c-1.05,0.55,13.07,0.44,12.16,1.49c-29.73,25.72-74.09,33.86-107.02,8.81v-0.04
			c-9.8-7.17-19.69-18.7-26.57-30.76l8.08-13.1c64.18,39.59,89.59-27.97,141.78-33.23l-10.45,15.25L2336.6,1264.55z"/>
		<path class="st19" d="M2407.86,1717.12l0.98-0.51c0,0.69,0.85,3.07,1.53,3.07l28.96,0.6c0.69,0,1.11-1.29,1.11-1.98l2.47-0.71
			c0-4.34-0.36-5.91-2.27-9.26c-7.04-9.36,1.36-51.21,1.12-62.14c1.74-2.99-30.5-0.64-30.95-1.35c-0.72,0-1.29,0.62-1.24,1.34
			l3.79,47.82C2415.07,1703.07,2408.1,1708.56,2407.86,1717.12z"/>
		<path class="st19" d="M2282.33,1721.29h57.68c5.04-0.2,5-5.34,4.07-9.32c-3.18-14.36,2.44-47.32,3.48-62.08
			c0.28-2.7-1.84-5.05-4.56-5.05h-25.46c-2.76,0-4.89,2.42-4.55,5.16l4.63,36.92c2.52,16.04-16.62,19.1-27.52,20.87
			C2282.91,1708.29,2270.91,1718.09,2282.33,1721.29z"/>
		<path class="st4" d="M2346.28,1715.3c-0.16,2.83-1.56,6.05-4.83,5.98c0,0-59.83,0-59.83,0c-14.11-5.23,7.03-23.96,34.66-23.85
			C2335.91,1702.83,2346.94,1687.52,2346.28,1715.3z"/>
		<path class="st4" d="M2438.32,1721.29h-25.57c-12.46-1.7-3.48-25.61,12.78-23.89C2441.85,1695.34,2450.78,1719.61,2438.32,1721.29
			z"/>
		<path class="st27" d="M2277.42,1715.3h68.86c-0.25,2.1-0.83,4.14-1.89,5.98h-62.78
			C2278.52,1721.29,2276.32,1718.19,2277.42,1715.3z"/>
		<path class="st27" d="M2438.32,1721.29h-25.57c-3.25,0-5.87-2.74-5.67-5.98h36.92
			C2444.19,1718.55,2441.58,1721.29,2438.32,1721.29z"/>
		<path class="st29" d="M2357.01,1131.9c0,0-0.3-18.7,16.6-22.02l8.86,9.19L2357.01,1131.9z"/>
		<path class="st6" d="M2445.8,1688.65c0,0-27.28,6.63-41.33-0.49c-7.31-45.86-27.62-173.57-34.69-261.08
			c-0.27,5.1-15.13,210.9-17.95,261.08c-9.7,3.25-29.21,7.16-40.13-0.7c-4.9-52.83-20.65-226.76,3.07-368.81
			c0,0,65,7.23,115.76-8.11C2444.5,1355.6,2448.2,1634.58,2445.8,1688.65z"/>
		<path class="st36" d="M2445.5,1678.26c-7.8,1.75-15.01,2.36-21.21,2.39c-2.84-155.12-25.8-301.36-29.29-301.92
			c-2.61,1.95,19.93,146.53,29.19,301.92c-12.86,0.05-21.31-2.39-21.31-2.39c1.01,6.35,1.59,9.9,1.59,9.9
			c14.05,7.12,41.33,0.49,41.33,0.49C2445.71,1688.14,2445.61,1684.45,2445.5,1678.26z"/>
		<path class="st36" d="M2351.83,1688.16c-0.23-4.41,17.95-261.08,17.95-261.08s-8.59,4.58-10.63,31.84
			c-1.77,23.7-12.37,181.17-15.1,221.89c-8.48,1.89-16.11,1.54-21.93,0.59c-6.48-151.11,8.69-280.73,6.4-282.28
			c-4,0.32-19.27,131.09-6.47,282.27c-6.94-1.14-11.27-3.12-11.27-3.12c0.57,5.96,0.91,9.2,0.91,9.2
			c8.94,6.44,23.65,4.98,34.01,2.45c2.62-0.61,4.63-1.26,5.55-1.57C2351.45,1688.28,2351.64,1688.22,2351.83,1688.16z"/>
		<path class="st19" d="M2364.56,1197.2c-1.42-12.37,0.52-30.22,2.24-37.56c3.11-14.48,26.07-8.88,22.26,5.36
			c-0.74-0.47-3.11,25.78-1.47,33.06C2409.13,1204.53,2344.32,1225.79,2364.56,1197.2z"/>
		<path class="st25" d="M2389.28,1163.81c-0.06,0.4-0.13,0.8-0.22,1.19c-0.53-0.35-2.03,14.12-2.04,24.63
			c-9.87,4.49-20.88,2.52-22.9,2.1c-0.22-13.31,1.01-25.44,2.96-33.05C2371.08,1145.8,2391.32,1150.5,2389.28,1163.81z"/>
		<path class="st19" d="M2404.59,1158.41c-3.27,9.89-8.54,20.79-17.64,26.22l-0.01,0c-3.7,2.18-7.89,3.25-12.22,3.4
			c-24.32,3.28-48.27-29.82-26.39-46.3c3.61-2.57,6.76-6.3,8.68-9.83C2376.51,1094.31,2416.49,1123.81,2404.59,1158.41z"/>
		<path class="st37" d="M2353.83,1162.32l14.41-4.66C2368.32,1165.81,2358.7,1169.74,2353.83,1162.32z"/>
		<path class="st20" d="M2322.37,1249.52l-10.01,36.73c-21.44,6.59-44.3,5.1-64.47-7.28c22.17,12.52,52.64,5.46,57.44-1.89
			C2310.39,1269.28,2321.68,1250.65,2322.37,1249.52z"/>
		<path class="st29" d="M2439.99,1371.87c-2.32,2.82-4.8,5.65-7.42,8.49c0,0-12.77,2.4-22.77-10.9
			c40.78-86.46-37.96-94.53-22.22-171.4C2440.19,1204.27,2513.37,1282.79,2439.99,1371.87z"/>
		<path class="st26" d="M2366.83,1145.91c-0.65-1.91,2.38-2.89,2.97-0.95C2370.44,1146.87,2367.42,1147.84,2366.83,1145.91z"/>
		<path class="st26" d="M2354.25,1141.66c-0.65-1.91,2.38-2.89,2.97-0.95C2357.87,1142.62,2354.84,1143.59,2354.25,1141.66z"/>
		<path class="st25" d="M2404.59,1158.41c-3.27,9.89-8.54,20.79-17.64,26.22l-0.01,0c-0.75,0.45-1.53,0.85-2.33,1.2
			c7.08-5.08,12.71-17.51,12.71-17.51l0.33-11.24c-8.25-11.57-2.2-22.12-2.2-22.12c-17.23,1.97-21.14-9.09-21.14-9.09
			c-5.32-0.17-10.38-3.68-10.38-3.68C2387.61,1098.44,2414.86,1132.38,2404.59,1158.41z"/>
		<path class="st26" d="M2353.83,1162.91c0.32-0.37,15.71-4.3,14.97-5.43c0.3-1.44-14.86,4.49-15.16,4.28
			C2353.02,1161.94,2353.18,1162.93,2353.83,1162.91z"/>
		<path class="st26" d="M2358,1155.9c1.01,0.31,1.88-1.1,0.56-1.22c-2.07,0.39-6.6-1.74-4.1-2.77c3.58-1.22,9.17-9.42,5.9-7.95
			c-0.03,0.06-3.14,5.74-6.29,6.84C2349.75,1152.95,2355.01,1155.91,2358,1155.9z"/>
		<path class="st20" d="M2439.99,1371.87c-2.32,2.82-4.8,5.65-7.42,8.49c0,0-13.01,1.82-23.01-11.48c1.47-3.57,3.09-5.89,4.34-9.43
			C2413.91,1359.45,2421.63,1368.09,2439.99,1371.87z"/>
		<path class="st36" d="M2433.49,1382.07c2.75,0.83,5.65-2.43,1.91-3.38c-20.24,0.88-25.63-12.48-25.85-13.05
			C2400.77,1360.71,2411.55,1383.29,2433.49,1382.07z"/>
		<path class="st35" d="M2305.32,1379.71c0,0,3.97,17.03,35.74,25.43c9.1,2.41,14.36,1.22,15.69-5.09c0.67-3.17,2.4-8.68,5.58-10.73
			c0,0,7.11,3.07,9.79,7.43c5.88,9.55,14.74,0.87,19.05-9.12c5.34-12.36,18.85-22.84,21.81-33.2L2305.32,1379.71z"/>
		<path class="st29" d="M2434.79,1358.66c-1.03,1.83-1.65,1.54-2.71,0.48c-28.54-21.32-38.76,25.26-69.51,26.09
			c-31.31,3.1-48.72,4.87-57.25-5.52c-14.89-23.07,8.79-126.22,27.94-151.19c8.39-12.99,23.27-24.56,31.29-31.3
			c-0.16,0.68-4.43,18.41,23.04,0.85c1.38,0.58,10.09,9.08,9.54,13.63C2398.52,1232.57,2448.06,1335.2,2434.79,1358.66z"/>
		<path class="st29" d="M2355.52,1105.25c0,0,8.05-2.22,16.31,1.02c0.95-3.13,2.88-6.02,6.01-8.31c1.35,3.8,3.26,7.46,5.44,10.86
			c0.75-7.15,5.16-12.96,5.16-12.96c1.18,6.85,10.65,11.78,15.12,19.2l0.24-0.34c0,0,25.02,9.01,6.99,31.18l0,0
			c-0.74,8.21-4.75,16.51-4.75,16.51c-13.26-12.11-10.4-26.67-4.38-30.45c-10.81,3.83-20.43-0.71-25.87-7.88
			C2367.75,1122.76,2357.92,1118.39,2355.52,1105.25z"/>
		<path class="st20" d="M2418.27,1365.22l-6.26-1.3c25.02-56.32-4.41-80.13-19.97-111.86
			C2428.13,1293.82,2433.59,1316.71,2418.27,1365.22z"/>
		<path class="st19" d="M2410.22,1164.58c-4.14,11.12-18.12,5.74-13.72-5.29C2400.63,1148.17,2414.61,1153.55,2410.22,1164.58z"/>
		<path class="st26" d="M2406.26,1166.38c2.55-2.67,2.55-7.16,1.39-8.41c-2.12-2.18-6.15-1.92-6.15-0.66
			c0.54,1.28,3.27-0.81,5.23,1.39C2408.83,1160.35,2404.62,1165.7,2406.26,1166.38z"/>
		<path class="st26" d="M2400.96,1164.69c0.9-0.06,2.36-4.15,6.82-3.88c0.32,0.04,0.61-0.21,0.64-0.53
			C2405.52,1157.34,2398.33,1164.75,2400.96,1164.69z"/>
		<path class="st35" d="M2396.03,1199.57c0.15,10.48-26.73,19.73-28.26,19.74l-3.22-9.53c-4.14,1.02-7.78,6.81-7.78,6.81
			c-11.92-11.36-0.71-21.26,7.78-19.39c0,0,0,0.01-0.01,0.01c-0.17,0.68-2.04,16.22,22.94,0.31
			C2390.69,1196.04,2396.03,1199.57,2396.03,1199.57z"/>
		<path class="st20" d="M2230.35,1234.67c-0.04,8.37-11.43,15.43-11.43,15.43c-1.27-1.93-2.55-3.97-3.75-6.04l8.08-13.1
			C2225.69,1232.3,2228.05,1233.54,2230.35,1234.67z"/>
		<path class="st19" d="M2211.38,1207.39c-3.13,2.01,2,8.2,1.61,11.57c-5.19-2.36-9.73-6.25-9.77-6.24
			c-4.45-5.48-8.59-11.2-12.47-17.1c-9.58-4.39,5.62,17.31,6.76,19.98c-0.03,0.02-0.05,0.05-0.08,0.07
			c-5.75-4.65-11.26-9.61-16.32-15.01c-10.78-2.25,10.95,17.58,12.93,19.94c-0.01,0.02-0.01,0.03-0.02,0.05
			c-6.15-3.45-11.88-7.66-17.09-12.42c-11.06-1.3,12.56,17.14,15.18,18.8c-0.01,0.03-0.01,0.05-0.01,0.08
			c-4.68-0.62-14.31-9.27-17.4-7.18c-2.93,4.75,28.69,21.77,39.77,23.91c3.99,1.1,9.74-8.93,8.76-12.87
			c-0.91-3.69-3.46-8.22-4.34-9.88C2217.51,1217.23,2215.97,1207.7,2211.38,1207.39z"/>
		<path class="st31" d="M2241.7,1274.74c0.33,0.25,0.66,0.51,0.98,0.8c-0.33-0.26-0.62-0.47-0.95-0.69v-0.04
			C2241.7,1274.78,2241.7,1274.74,2241.7,1274.74z"/>
		<path class="st26" d="M2375.26,1145.51c-0.3,0-0.58-0.2-0.65-0.51c-0.05-0.18-1.18-4.29-7.46-6.43c-0.35-0.12-0.54-0.5-0.42-0.86
			c0.12-0.35,0.5-0.54,0.86-0.42c7.01,2.39,8.28,7.17,8.33,7.37c0.09,0.36-0.13,0.73-0.49,0.82
			C2375.37,1145.51,2375.31,1145.51,2375.26,1145.51z"/>
		<path class="st26" d="M2354.94,1136.77c-0.19,0-0.38-0.08-0.51-0.24c-0.24-0.28-0.21-0.71,0.08-0.95
			c3.37-2.87,7.99-0.57,8.18-0.47c0.33,0.17,0.46,0.57,0.3,0.91c-0.17,0.33-0.57,0.47-0.91,0.3c-0.04-0.02-4.02-1.99-6.69,0.3
			C2355.25,1136.72,2355.1,1136.77,2354.94,1136.77z"/>
	</g>
</g>
</svg>
