<?xml version="1.0" encoding="utf-8"?>
<!-- Generator: Adobe Illustrator 23.1.0, SVG Export Plug-In . SVG Version: 6.00 Build 0)  -->
<svg version="1.1" id="Ñëîé_1" xmlns="http://www.w3.org/2000/svg" xmlns:xlink="http://www.w3.org/1999/xlink" x="0px" y="0px"
	 viewBox="0 0 2800 2000" style="enable-background:new 0 0 2800 2000;" xml:space="preserve">
<style type="text/css">
	.st0{fill:#CFDDF9;}
	.st1{fill:#D4E8FF;}
	.st2{fill:#DCE6FF;}
	.st3{fill:#EEF7FF;}
	.st4{fill:#3A72AA;}
	.st5{fill:#FCB4B4;}
	.st6{fill:#CE4ABF;}
	.st7{fill:#8A9EDD;}
	.st8{fill:#FFFFFF;}
	.st9{fill:#D7DEFF;}
	.st10{fill:#EB5648;}
	.st11{fill:#D33F37;}
	.st12{fill:#CE3932;}
	.st13{fill:#F9B233;}
	.st14{fill:#FFC261;}
	.st15{fill:#245084;}
	.st16{fill:#2C6399;}
	.st17{fill:#C3DCFC;}
	.st18{fill:#DCEDFF;}
	.st19{fill:#F99370;}
	.st20{fill:#103663;}
	.st21{fill:#E8C0A6;}
	.st22{fill:#0F2E54;}
	.st23{fill:#C92828;}
	.st24{fill:#9358E0;}
	.st25{fill:#E57D61;}
	.st26{fill:#C16256;}
	.st27{fill:#23659B;}
	.st28{fill:#7640CC;}
	.st29{fill:#1D3F70;}
	.st30{opacity:0.4;fill:#FFFFFF;enable-background:new    ;}
	.st31{fill:#395B96;}
	.st32{fill:#163260;}
	.st33{fill:#234270;}
	.st34{fill:#0B274F;}
	.st35{fill:#F4D4BE;}
	.st36{fill:#A523A2;}
	.st37{fill:#F9F8F3;}
</style>
<g>
	<g id="_x31_0">
		<path class="st0" d="M150.1,1607.7c0,0-5.4,65,98.3,112.5c109,49.8,644.2,23.9,507.2,82.6c-97.4,41.7,56.9,74.6,447.2,86
			c200.7,5.8,1075.8,20.6,870.5-94.2c-152.5-85.3,593.7,36.8,575.9-186.8L150.1,1607.7L150.1,1607.7z"/>
		<path class="st1" d="M590.1,1606.4c0,0-294.7-679-82.6-830.2c141.8-101.1,254.8,118.6,434.1,0.8c159.7-104.9,21-389.5,240.8-435.3
			c284-59.1,509.5,515.9,744.4,434.5c285.1-98.8,568.8,101.7,323.6,831.5L590.1,1606.4z"/>
		<path class="st2" d="M359.5,1540.8c-5-13.6-9.8-27.7-14.5-41.9l11.6-3.1c4.7,14.1,9.5,28.1,14.5,41.6L359.5,1540.8z
			 M2434.6,1523.3l-12-1.3c2-14.5,3.9-29.1,5.6-43.3l12,1.2C2438.5,1494.1,2436.6,1508.7,2434.6,1523.3z M331.6,1456.8
			c-4.2-14-8.3-28.3-12.2-42.4l11.8-2.6c3.8,14.1,7.9,28.3,12.1,42.2L331.6,1456.8z M2445.2,1436.3l-12.1-1
			c1.5-14.5,2.9-29.2,4.2-43.4l12.1,0.9C2448.2,1407,2446.8,1421.7,2445.2,1436.3z M308.3,1371.6c-3.5-14.3-6.8-28.7-9.9-42.9
			l11.9-2.1c3,14.1,6.4,28.5,9.8,42.7L308.3,1371.6z M2452.9,1349l-12.1-0.7c1-14.5,1.9-29.2,2.7-43.5l12.1,0.5
			C2454.9,1319.7,2453.9,1334.4,2452.9,1349z M289.8,1285.5c-2.7-14.5-5.2-29-7.4-43.3l12-1.5c2.2,14.2,4.7,28.7,7.4,43.1
			L289.8,1285.5z M2457.4,1261.5l-12.1-0.3c0.5-14.6,0.8-29.3,1-43.6l12.1,0.1C2458.3,1232.1,2457.9,1246.8,2457.4,1261.5z
			 M276.3,1198.7c-1.8-14.6-3.4-29.3-4.7-43.7l12.1-0.9c1.3,14.3,2.8,28.8,4.6,43.3L276.3,1198.7z M2446.4,1174
			c-0.1-14.6-0.4-29.3-0.9-43.6l12.1-0.3c0.5,14.4,0.8,29.1,0.9,43.8L2446.4,1174z M268.4,1111.3c-0.8-14.7-1.3-29.4-1.6-43.8
			l12.1-0.2c0.2,14.3,0.8,28.9,1.6,43.5L268.4,1111.3z M2443.5,1086.9c-0.8-14.6-1.9-29.2-3-43.5l12.1-0.8
			c1.2,14.3,2.2,29.1,3.1,43.7L2443.5,1086.9z M279.1,1023.7l-12.1-0.2c0.3-14.7,1-29.5,1.9-43.8l12.1,0.6
			C280,994.5,279.4,1009.2,279.1,1023.7z M2436.3,1000.1c-1.6-14.6-3.4-29.1-5.4-43.3l12-1.4c2,14.2,3.9,28.9,5.5,43.5
			L2436.3,1000.1z M284.8,937l-12-1.1c1.6-14.7,3.6-29.3,6-43.6l12,1.6C288.4,908,286.4,922.5,284.8,937z M2424.1,913.7
			c-2.5-14.5-5.3-28.9-8.2-42.9l11.9-2c3,14.1,5.7,28.6,8.3,43.2L2424.1,913.7z M992.8,912.2c-16.8-2.4-29-9.2-45.8-21.1l7.7-8.4
			c14.8,10.4,25.4,16.6,39.5,18.7L992.8,912.2z M1034.8,886.3l-10.8-4.9c5.5-9.7,10.4-23.2,14.6-40.1l11.8,2.3
			C1046,861.7,1040.9,875.6,1034.8,886.3z M911.5,860c-9.6-9.6-19.9-20.7-31.5-33.9l9.5-6.7c11.4,13,21.5,23.9,31,33.3L911.5,860z
			 M298.8,851l-11.9-2.1c3.1-14.5,6.7-28.9,10.5-42.9l11.8,2.6C305.4,822.5,301.9,836.7,298.8,851z M2406.1,828.2
			c-3.6-14.3-7.4-28.5-11.5-42.2l11.7-2.8c4.1,13.8,8,28.2,11.6,42.6L2406.1,828.2z M1058.6,799.9l-12-1.4c1.9-13,3.5-27.1,5.1-43.4
			l12.1,0.9C1062.1,772.5,1060.4,786.8,1058.6,799.9z M850.3,791.1c-9.8-11.9-20-24.5-28.8-35.4l9.8-6.4c8.8,10.8,19,23.4,28.8,35.3
			L850.3,791.1z M1736.3,790.2c-9.4,0-18.7-2.5-27.5-7.5l6.4-9.2c13.2,7.5,26.3,7.5,40.3,1.5l5.2,9.8
			C1752.5,788.4,1744.3,790.2,1736.3,790.2z M322.1,766.8l-11.6-3.2c4.8-14.1,10.1-28.1,15.7-41.7l11.4,3.8
			C332,739.1,326.8,752.9,322.1,766.8z M1800.4,756.5l-8.9-7.4c9.2-8.9,19-19.9,30.1-33.6l9.8,6.4
			C1820,735.9,1809.9,747.3,1800.4,756.5z M1674.4,749c-7.8-10.8-15.6-23.6-23.7-39l10.9-4.6c7.9,15,15.4,27.3,22.9,37.8L1674.4,749
			z M2381.2,744.2c-4.9-14.1-10.1-27.9-15.5-41.1l11.4-3.7c5.4,13.4,10.7,27.4,15.6,41.6L2381.2,744.2z M792.8,720.3
			c-11.1-13.6-20.3-24.7-29-35.1l9.7-6.5c8.8,10.4,18,21.6,29.2,35.2L792.8,720.3z M1067.3,712.3l-12.1-0.7
			c0.9-12.7,1.8-27,2.8-43.7l12.1,0.6C1069.2,685.2,1068.3,699.5,1067.3,712.3z M355.7,685.6l-11.1-4.4
			c6.6-13.5,13.7-26.7,21.3-39.7l10.7,5C369.2,659.3,362.2,672.3,355.7,685.6z M1859.1,685.6l-10.1-6c8.6-11.7,17.5-24.2,26.5-36.7
			l10.2,5.9C1876.6,661.4,1867.7,673.8,1859.1,685.6z M1631.2,669.5c-5.5-12.3-11.2-25.8-17.3-41.1l11.4-3.7
			c6.1,15.2,11.7,28.6,17.2,40.8L1631.2,669.5z M2347.9,662.8c-6.5-13.6-13.4-26.8-20.5-39.2l10.8-4.9c7.2,12.7,14.2,26.1,20.8,39.9
			L2347.9,662.8z M733.9,650.9c-11-12.2-21.2-23.1-31.3-33.3l9-7.2c10.2,10.3,20.5,21.3,31.6,33.7L733.9,650.9z M1072.7,624.7
			l-12.1-0.5c0.8-14.5,1.6-29,2.5-43.8l12.1,0.6C1074.3,595.7,1073.5,610.2,1072.7,624.7z M1912.2,612.1l-10.1-6
			c10.1-13.7,19.2-25.6,27.7-36.3l9.9,6.3C1931.2,586.8,1922.2,598.5,1912.2,612.1z M400.6,609.1l-10.2-5.8
			c9.5-13.4,19.3-25.4,29.1-35.8l9.2,7C419.3,584.4,409.8,596.1,400.6,609.1z M1597.8,587c-5.6-14.6-11-29.2-15.6-41.5l11.5-3.4
			c4.6,12.3,10,26.9,15.6,41.5L1597.8,587z M669.4,586.2c-12.4-10.8-24.5-20.3-36.2-28.3l7.4-8.6c12,8.3,24.5,18.1,37.2,29.2
			L669.4,586.2z M2304,585.8c-8.7-12.7-17.8-24.7-27-35.7l9.6-6.5c9.5,11.3,18.8,23.6,27.7,36.5L2304,585.8z M462.7,544.8l-7.3-8.6
			c14.5-9.9,29.5-17,44.7-21.2l3.5,10.4C489.8,529.2,476,535.7,462.7,544.8z M1968.8,541.5l-9.4-6.8c11.3-12.6,22.1-23.4,32.9-33
			l8.6,7.7C1990.3,518.7,1979.9,529.3,1968.8,541.5z M1077.9,537.3l-12.1-0.7c1.1-15.8,2.1-30.1,3.2-43.8l12.1,0.8
			C1080,507.3,1079,521.5,1077.9,537.3z M593.2,535c-15.1-6.7-30-11-44.2-12.8l1.6-10.8c15.5,1.9,31.6,6.5,47.9,13.8L593.2,535z
			 M2245.8,517.5c-11.6-10.7-23.7-20.1-35.9-28.1l7.1-8.8c12.7,8.3,25.3,18.1,37.4,29.3L2245.8,517.5z M1566.7,503.9
			c-6-16.1-11-29.3-15.6-41.4l11.4-3.5c4.6,12.1,9.6,25.3,15.6,41.5L1566.7,503.9z M2037,481.6l-6.9-8.9
			c14.9-9.3,29.9-16.3,44.7-20.5l3.7,10.3C2064.9,466.5,2050.9,472.9,2037,481.6z M2169.1,468.3c-15-5.7-30.2-9.2-45.1-10.4
			l1.1-10.8c16.2,1.4,32.5,5.1,48.7,11.2L2169.1,468.3z M1085,450l-12.1-1c1.5-15.2,3.2-29.9,4.9-43.7l12,1.2
			C1088.1,420.3,1086.5,434.9,1085,450z M1535,421.2c-5.8-14.6-11.4-28-16.8-40.9l11.3-3.9c5.5,13,11.1,26.4,16.9,41.1L1535,421.2z
			 M1096,363.3l-12-1.5c2.4-15.2,5.1-29.8,8-43.4l11.9,2C1101.1,333.8,1098.4,348.3,1096,363.3z M1500.2,339.8
			c-6.5-14-13.1-27.5-19.5-39.9l11-4.6c6.5,12.6,13.1,26.1,19.7,40.3L1500.2,339.8z M1114.2,277.9l-11.7-2.6
			c4.2-15.1,8.9-29.4,13.8-42.4l11.4,3.5C1122.8,249,1118.3,263,1114.2,277.9z M1459.2,261c-8-13.4-16.1-26.1-24.2-37.5l10.2-5.8
			c8.2,11.7,16.5,24.5,24.6,38.2L1459.2,261z M1145.9,196.6l-10.8-4.8c7.9-14.4,16.8-27.2,26.2-37.9l9.5,6.7
			C1161.8,170.7,1153.4,182.8,1145.9,196.6z M1407.3,188.3c-10.6-11.9-21.5-22.4-32.4-31.3l8.1-8.1c11.4,9.3,22.8,20.2,33.8,32.6
			L1407.3,188.3z M1204.5,132.4l-6.5-9.1c14.3-8.2,30.1-13.6,46.9-15.9l1.8,10.7C1231.6,120.2,1217.4,125,1204.5,132.4z
			 M1336.7,132.4c-14.1-6.8-28.8-11.5-43.7-13.8l2.1-10.7c16.1,2.6,32,7.6,47.3,15L1336.7,132.4z"/>
		<path class="st3" d="M2518.6,1267.5c-100.4-14.9-91.3,208.8-234.5,208.8c-130.9,0-200.9-499.8-344.5-398.2
			c-577.4,408.7-128.1-286.8-516.4-300.3c-175.6-6.2-292.5,181-335.7,512.5c-62.5,299.6-207.5-228.5-356.8-179.4
			c-94.8,31.2-84,365.4-214.9,365.4c-143.1,0-133.7-188.1-234.1-173.2c-108.1,16-133.5,307.7-133.5,307.7h2503.4
			C2651.7,1610.8,2626.7,1283.6,2518.6,1267.5z"/>
		<path class="st2" d="M2422.4,1502.3c-92.4-6.4-77.3,51.1-209,51.1c-120.4,0-117.1-128.7-197.7-156.1
			c-148.4-50.4-270.7,204.6-328.2,76.6c-109.3-339.5-427.9-509.7-574.9,0c-57.5,127.9-192-100.3-328.2-76.6
			c-83.8,14.6-77.3,156.1-197.7,156.1c-131.7,0-116.6-57.4-209-51.1c-99.5,6.8-129.2,108.5-129.2,108.5h2303.1
			C2551.6,1610.8,2521.8,1509.2,2422.4,1502.3z"/>
	</g>
	<path id="_x39_" class="st4" d="M764.8,962c-67.9-76.7-120.8-155.7-161.6-228.5c10.6,6.3,59,8.9,59.8-1.5c0.8-11.6-57.7-16-65-8
		c-2.7-5-5.4-9.9-8-14.8c10.4,5.6,62,1,61.3-9.9c-1-11.6-59.5-6.9-65.5,2.1c-3.3-6.2-6.4-12.4-9.5-18.5c11,5.1,60.9,0.4,60.2-10.3
		c-1.1-11.4-57.4-7-64.7,1.4c-3-6.1-6-12.2-8.9-18.1c9.5,5.7,64.3-7.7,61.8-18.9c-2.8-11.4-61,2.9-64.6,13c-2.7-5.8-5.4-11.5-8-17.1
		c10.7,4.4,62.3-8.5,59.9-19.4c-3-11.1-57.5,2.2-63.5,11.6c-3-6.8-6-13.4-8.8-20c11,4.1,61.9-8.7,59.5-19.5c-3-11-56.5,2-63,11.2
		c-2.1-5-4.2-10-6.2-14.8c10.9,3.2,60.9-18.6,56.7-29.1c-4.7-10.2-54.5,11-59.9,21.1c-2.8-7-5.4-13.5-8-20.2
		c11.4,2.5,59.8-18.9,55.7-29.2c-4.6-10-52.7,10.3-59.1,20.2c-1.9-5.1-3.8-10.2-5.6-15.1c10.7,2.4,57.5-31.1,50.8-40.6
		c-6.7-8.8-49.9,21.7-53.6,32.8c-2.2-6.1-4.2-12.1-6.2-18c10.8,2.1,57.1-31.2,50.5-40.7c-6.6-8.8-49.1,21.2-53.3,32.2
		c-2.1-6.3-4-12.4-5.9-18.4c12-1.5,52.1-31.2,45.9-39.9c-5.4-8.1-42.7,16.7-49.8,27.3c-1.8-5.8-3.4-11.5-5-16.9
		c11.4-1.5,49-40.2,41.1-48.2c-6.8-7-39.6,24.1-44.6,35.8c-1.4-5-2.6-9.7-3.8-14.2c10.8,0.4,49-43.9,40.3-51.5
		c-7.8-6.7-39.6,28.5-43,40.5c-1.7-6.9-3.1-13-4.4-18.5c11.1-1.2,47.4-43.6,38.9-51.2c-7-6.5-37.3,25.9-41.8,37.9
		c-1-4.9-1.7-8.6-2.1-11c6.1-9.9,1.6-62.9-9.6-62.3c-5.2,0.4-8.2,15.7-6.7,34.3c1.3,21.9,7.8,25.3,10.3,41.4
		c-7.6-10.4-44.8-33.4-49.7-25.3c-6.6,9.7,42.8,43.3,52.8,39.4c1.1,5,2.5,10.7,4,16.9c-9-8.9-52.4-24.8-56-15.5
		c-4.1,10.8,49.1,32.2,59,27.4c1.4,5.3,2.9,10.9,4.5,16.8c-9.8-8-54.2-20-56.9-10.4c-3.1,11,50.2,27.3,60.3,22.5
		c1.6,5.4,3.2,11.1,5,16.9c-10.2-7.3-56.3-15.5-58.2-5.6c-2,11.2,51.9,22.5,61.8,17c1.7,5.4,3.5,11,5.4,16.7
		c-10.5-6.4-59.3-9.1-60.2,1.3c-0.6,11.4,54.6,15.7,63.5,8.8c1.8,5.2,3.6,10.5,5.5,15.9c-10.3-5.7-62.1-1.1-61.5,9.9
		c1.1,11.4,57.2,7,64.5-1.3c2,5.6,4.1,11.3,6.3,17.1c-9.9-6.1-62.9-1.5-62.3,9.6c1.1,11.6,58.8,7,65.2-1.9c2.4,6.3,4.8,12.5,7.4,19
		c-10.4-5.6-62-1-61.3,9.9c1.1,11.5,57.6,7,64.7-1.5c1.9,4.6,3.8,9.2,5.8,13.9c-11.4-3.5-60.7,9.2-58.4,19.7
		c2.9,10.8,54.9-1.6,62.3-10.5c2.4,5.7,5,11.4,7.6,17.3c-11-4-61.7,8.8-59.3,19.5c3,11,56.6-2,63.1-11.2c2.7,5.9,5.5,12,8.4,18.1
		c-10.3-4.9-63.2,8.2-60.7,19.2c2.9,11.2,59.1-2.5,64-12.3c2.7,5.6,5.5,11.3,8.3,17c-11.2-3.2-61,15.2-57.5,25.7
		c4.1,10.6,55.8-8,61.4-17.9c3.1,6.1,6.3,12.4,9.6,18.6c-9.9-4.8-63.3,14.5-59.6,25.4c4.1,11,59.5-9.2,62.6-19.6
		c3.5,6.6,7,13.2,10.7,19.9c-10.7-3-60.2,23.2-55.1,33.4c5.6,10,55.3-16.2,58.7-26.8c41.4,74.4,95.3,155.5,165,234.1L764.8,962z"/>
	<path id="_x38_" class="st5" d="M787.3,905.8c-74-23.1-139.2-53.6-194.1-84.8c9.3-0.1,41.7-17.3,38.1-24.3
		c-4-7.8-43.7,12.2-45.2,20.3c-3.7-2.2-7.4-4.3-11-6.5c8.9-0.5,40.5-23.6,35.8-30.4c-5.2-7.1-41.2,18.8-41.5,27
		c-4.5-2.7-9-5.5-13.4-8.2c9.1-1,39.6-23.6,35-30.2c-5.2-7-39.9,17.9-41.3,26.2c-4.4-2.8-8.7-5.5-12.8-8.3
		c8.4,0,38.6-30.1,32.6-36.4c-6.3-6.3-38.3,25.7-36.7,33.7c-4-2.7-8-5.3-11.9-8c8.7-1.4,37-29.9,31.2-36c-6.3-6-36.4,23.9-36.5,32.3
		c-4.6-3.2-9.1-6.3-13.5-9.5c8.7-1.6,36.7-29.8,30.9-35.9c-6.2-5.9-35.8,23.4-36.4,31.9c-3.4-2.4-6.6-4.8-9.8-7.2
		c8.3-2.2,32.2-35.9,25.3-41c-7-4.8-31,28.5-30.5,37.1c-4.5-3.4-8.8-6.6-13-10c8.3-2.9,31.4-35.6,24.7-40.7
		c-6.9-4.7-30.1,27.3-30.4,36.2c-3.3-2.6-6.4-5.1-9.5-7.6c7.9-2.6,25-42.6,17-46.2c-7.8-3.1-23.8,33.6-21.9,42.2
		c-3.8-3.1-7.5-6.2-11.1-9.2c7.8-2.9,24.8-42.5,16.8-46.1c-7.7-3.1-23.5,32.9-22,41.7c-3.8-3.3-7.5-6.5-11-9.6
		c32.1-42.5,9.1-68.6-7.4-6.6c-3.4-3.1-6.7-6.1-9.8-9c6.8-5.5,16-45.2,7.8-47.3c-7.2-1.9-16.3,31.1-14.9,40.6
		c-2.8-2.7-5.5-5.2-8-7.7c7.2-4,14.6-47.6,5.9-49.1c-7.6-1.3-14.5,34-12,43.1c-3.8-3.8-7.1-7.2-10.1-10.3
		c6.7-5.2,13.7-46.8,5.2-48.4c-7.1-1.5-14,31.3-12.3,40.9c-2.6-2.8-4.5-4.9-5.7-6.3c0.1-8.8-23.6-41.4-30.6-36.6
		c-3.2,2.3,0.9,13.4,9,24.8c9.4,13.7,14.9,13.3,22.8,22.8c-9-3.7-42-4.1-42.1,3.1c-0.5,8.9,44.6,11.3,49.6,4.8
		c2.7,2.8,5.8,6,9.2,9.4c-9.3-2.2-43.6,4.4-42.3,11.9c1.5,8.6,44.4,1.7,48.9-5.3c3,2.9,6.1,5.9,9.5,9.1c-9.5-1.3-42.9,8.2-40.9,15.5
		c2.3,8.3,43.2-1.9,47.8-9c3.1,2.9,6.4,5.9,9.9,9c-9.5-0.7-42.5,12-39.9,19.2c3,8,42.5-5.7,46.6-13.2c3.2,2.8,6.5,5.7,10,8.7
		c-9.3,0-42,17.3-38.5,24.4c4.1,7.6,41.5-11.2,44.6-19.2c3.2,2.7,6.4,5.4,9.8,8.1c-8.9,0.4-40.7,23.6-36,30.4
		c5.2,6.9,39.8-17.8,41.3-26.1c3.5,2.8,7.1,5.7,10.8,8.6c-8.8-0.1-41.3,23.6-36.6,30.5c5.2,7.1,40.8-18.5,41.5-26.7
		c4,3.2,8,6.2,12.2,9.4c-8.9,0.5-40.5,23.6-35.8,30.4c5.2,7,40.1-18,41.3-26.3c3,2.2,6.1,4.5,9.2,6.8c-8.8,2.2-35.8,29.7-30.1,35.6
		c6.1,5.8,34.9-22.5,36.2-31.2c3.8,2.7,7.7,5.5,11.7,8.2c-8.7,1.7-36.5,29.8-30.8,35.8c6.2,6,35.9-23.4,36.4-31.9
		c4.1,2.8,8.2,5.6,12.5,8.4c-8.6,0.8-37.7,30-31.8,36.2c6.3,6.1,37.3-24.7,36.7-33c3.9,2.6,8,5.2,12,7.8
		c-8.5,2.3-33.6,33.7-27.2,39.2c6.8,5.2,33-27,32.8-35.6c4.4,2.8,8.9,5.5,13.5,8.3c-8.3,0.8-35.3,34.1-28.7,39.7
		c6.9,5.5,34.9-29.2,32.9-37.2c4.8,2.9,9.7,5.8,14.7,8.7c-8.1,2.2-29.9,38.6-22.6,43.2c7.5,4.3,29.5-32.2,27.5-40.3
		c55.9,32,122.6,63.4,198.4,87.1L787.3,905.8z"/>
	<path id="_x37_" class="st5" d="M2261.5,544.8c9.9,23.2,16.7,44.2,18.7,55.9c5.6-13.5,11.1-26,16.4-37.5
		c-10.7-7.5-43.8-124.6-32.4-128.4c11-1.6,38.1,97.8,37.6,117.2c6.1-12.8,11.9-24.3,17.4-34.6c-10.2-3.8-19.7-134.3-7.6-134.3
		c5.1-0.3,11.3,29.6,13.8,66.8c1.6,23.7,1.3,44.7-0.4,56.9c7.4-13.4,14.2-24.4,20.2-33.4c-9.5-5.3,6.3-135.8,18.1-133.3
		c10.6,2.5-1.9,102.5-9.5,120.9c17.9-23.4,21.5-32.6,54.7-63.1c64.5-59.5,77.4-45.5,12.5,13.7c-31.4,30.9-44.2,27.6-63.8,57.8
		c15.1-9.7,120.1-33.5,123.9-22.7c2.4,11.8-119.5,38-129.6,31.1c-6.2,9.4-13.4,21.1-21.3,35.4c13.8-8.5,125.8-21.5,128.4-10.1
		c1,12-122.5,24.6-132.1,16.8c-5.7,10.6-11.8,22.5-18.1,35.8c15.6-8.1,123.7-20.5,126.3-9.3c0.2,11.9-117.4,23.9-130.1,17.4
		c-5.6,12-11.4,25.2-17.4,39.5c15.6-8.1,123.6-20.5,126.3-9.2c0.1,11.9-116.4,23.8-129.7,17.5c-4.9,11.9-9.9,24.7-15,38.2
		c14.5-8.4,125.1-21.2,127.7-9.8c0.3,12-118.3,24-130.5,17.3c-4.6,12.9-9.8,25.7-15.5,37.7c14.6-6.5,128-2.3,128.8,9.4
		c-1.4,11.9-121.5,5.8-132-2.8c-6.4,13.1-13.5,25.5-21,37.1c11-7.1,131.9,7.2,131,19.2c-0.8,12-130-5-133.5-15.3
		c-9.8,14.6-20.6,28-32.7,40.4c15.5-2.7,124.7,30.9,122.4,42.4c-4.1,11.3-120.9-26.4-127.4-37.5c-12.8,12.5-26.6,23.5-41.2,32.7
		c16.2,0.5,116.6,52.1,112.4,63.1c-6,10.4-114.3-47.2-118.8-59.2c-39.1,23-69.7,25.8-71,25.9l-0.6-7.5c0.3,0,29.8-2.8,66.8-24.3
		c-12.1-9.8-57.8-115-47.4-120.8c11.3-3.2,54.6,100.3,54.1,116.8c12.2-7.7,25.9-17.9,39.9-31.5c-11.8-3.7-69.6-113.4-59.1-119.2
		c11-4.5,64.7,101.1,63.1,115.2c10.9-11,21.8-24.1,32.4-39.6c-12.1-2.7-78.5-107.5-68.5-114.1c10.7-5.2,71.6,93.9,72,108.9
		c7-10.6,13.7-22.3,20.1-35.3c-11,1-80.4-108.9-69.9-114.7c10.6-5.5,72.8,95.8,72.2,109.9c5.4-11.2,10.6-23.6,15.3-36.5
		c-13.1-6.5-76-105.5-66.5-112.7c10.3-4.7,65.7,84.6,70.1,102.8c5.1-13.6,10.1-26.4,15-38.4c-11.4-4.3-61-118.5-50.1-123.4
		C2231.2,484.2,2246.9,510.4,2261.5,544.8z"/>
	<path id="_x36_" class="st6" d="M1008.2,565.9c-1-8.9-87.2-8.9-98.4-3.6c5.8-9.8,11.7-22,16.5-36.6c8,5.3,101-9.9,99.7-19
		c-2.5-8.7-88.6,6.7-98.1,13.9c3.5-11.5,6.4-24.5,8.1-39c5.8,6,99.9-27.7,96.2-36.2c-3.6-8.4-90.9,24.1-95.8,32.8
		c1.1-10.2,1.6-21,1.4-32.6c10.1,2.3,94-35.6,90.7-44.1c-4.7-7.7-83.1,29.1-90.9,38.6c-0.3-9.8-1.3-20.6-2.6-31
		c10.6,0.3,87.1-49.4,82.7-57.3c-5.8-6.8-76.4,40.4-83.4,51.2c-1.3-11-2.3-21.4-3.2-31.2c11.2-0.3,86.4-49.2,82-57.2
		c-5.8-6.6-74.7,39.4-82.6,50.4c-0.9-11.8-1.6-22.8-2-32.9c10.8,0,86.8-49.3,82.4-57.3c-5.8-6.7-74.8,39.4-82.7,50.4
		c-0.3-11.3-0.4-21.5-0.2-30.7c9.2,2,88.8-49.7,83.9-57.5c-5.8-6.8-77.3,41.1-83.8,51.7c0.4-12.5,1.2-22.9,2.1-31.5
		c9.2,1.2,83-59.2,77.2-66.4c-6.4-5.9-69.4,46.8-76.3,58.7c2.8-27.4,12.7-29.7,23.2-61.6c23.4-62.9,9.8-67.9-13.3-4.9
		c-12,32.4-11.1,39.8-15.2,62c-1.2-15.1-27.7-87.6-35.8-85.5c-8.9,2.5,26,96.7,34.3,97c-0.9,8.2-1.7,18.1-2,29.8
		c-3.1-13.9-44.4-83-52.3-79.5c-8.2,4.2,43.8,89.6,52,88.6c-0.1,8.9-0.1,18.8,0.3,29.6c-6.3-13.3-59.6-71.5-66.5-66.5
		c-6.4,6.6,56.9,74.5,66.8,76c0.4,9.7,1.1,20,2,31.2c-6.6-11.8-70.1-65.1-76.5-59.1c-5.7,7.2,67.8,67.4,77.1,66.4
		c0.9,9.9,1.9,20.3,3.2,31.3c-9.3-10.8-78.3-52.3-83.6-45.4c-3.9,8.2,73.3,53.5,84.5,53.4c1.3,10.4,2.1,20.6,2.4,30.1
		c-4.4-9.7-82.2-57-87.5-49.5c-5.1,7.7,80.4,58.1,87.6,53.6c0.2,11-0.3,21.3-1.4,31c-5.5-10-81.6-56.2-87-48.9
		c-4.5,8,77.2,56,86.4,53.7c-1.8,14.2-4.7,27-8.2,38.2c-3.8-10.1-77.3-63.3-83.2-56.3c-5.1,7.6,72.4,62,81.8,60.4
		c-4.8,14.2-10.5,25.9-16.1,35.4c-5.3-11.3-71-66.7-77.5-60.5c-5,7.6,62.7,63,74.4,65.5c-17.7,27.5-36.7,39.7-36.9,39.9l3,4.8
		c0.9-0.5,20.7-13.2,39.2-42.4C913.9,573.8,1007.7,575.1,1008.2,565.9z"/>
	<g id="_x35_">
		<path class="st7" d="M669.9,1630.7c-50.2,0-91-40.7-91-91V584.3c0-50.2,40.7-91,91-91h1394.8c50.2,0,91,40.7,91,91v955.4
			c0,50.2-40.7,91-91,91L669.9,1630.7L669.9,1630.7z"/>
		<rect x="661.2" y="571.3" class="st8" width="1412.1" height="981.5"/>
		<rect x="717.9" y="627.9" class="st9" width="1298.8" height="868.2"/>
		<polygon class="st8" points="2056,1082.4 2056,1059.7 1725.1,1059.7 1483.3,1234 888.6,1234 886.3,859.9 1080.1,1053.6 
			1112.1,1021.5 929.5,838.9 2029.6,838.9 2029.6,816.3 908.8,816.3 908.8,609.6 863.5,609.6 863.5,816.3 863.4,816.3 863.5,827.6 
			863.5,837 863.5,837.1 864.6,1014.9 687.3,1014.9 687.3,1060.2 864.9,1060.2 865.9,1234 687.3,1234 687.3,1279.3 866.2,1279.3 
			867.7,1521.6 890.3,1521.5 888.9,1279.3 1465.8,1279.3 1465.8,1521.6 1488.4,1521.6 1488.4,1279.3 1712.2,1279.3 1834.4,1336.1 
			1656.2,1514.3 1688.3,1546.4 1878.2,1356.4 2020.1,1422.3 2039.2,1381.2 1722.2,1234 1522.1,1234 1732.4,1082.4 		"/>
		<path class="st7" d="M1096.1,1496.1L1096.1,1496.1c-21.9,0-39.7-17.8-39.7-39.7v-418.9c0-21.9,17.8-39.7,39.7-39.7h556.3V867.3
			c0-21.9,17.8-39.7,39.7-39.7l0,0c21.9,0,39.7,17.8,39.7,39.7v170.3c0,21.9-17.8,39.7-39.7,39.7h-556.3v379.2
			C1135.7,1478.3,1118,1496.1,1096.1,1496.1z"/>
		<g>
			<path class="st10" d="M1742.2,830.9c-0.3,68.5-104.4,68.5-104.7,0C1637.8,762.5,1741.9,762.5,1742.2,830.9z"/>
			<path class="st8" d="M1718.2,830.9c0.5,36.8-57.3,36.8-56.8,0C1660.9,794.1,1718.8,794.1,1718.2,830.9z"/>
			<path class="st10" d="M1806.4,539.6c8.2,98.1-116.5,225-116.5,225C1388,444.2,1786.4,301.2,1806.4,539.6z"/>
			<path class="st8" d="M1754.3,538.1c-1.4,84.8-127.5,84.7-128.9,0C1626.8,453.4,1752.9,453.4,1754.3,538.1z"/>
		</g>
		<g>
			<polygon class="st10" points="1096.1,1114.2 1096.1,1352.3 939,1386.3 			"/>
			<polygon class="st11" points="1253.2,1386.3 1096.1,1352.3 1096.1,1114.2 			"/>
		</g>
	</g>
	<g id="_x34_">
		<path class="st10" d="M1372.6,1333.3l-37.6,110.7h691l-84.8-143.8c-27.8-47.2-74.8-75.5-125.1-75.5h-442.4
			c-9.1,0-14,10.8-7.9,17.6c7.6,8.5,24.6,21,47.1,25.4C1395.3,1285.3,1381.4,1307.6,1372.6,1333.3z"/>
		<rect x="1256.4" y="1587.7" class="st12" width="50.8" height="20.6"/>
		<path class="st13" d="M2227.7,1535.2c-1.4,10.8-8.3,20.5-19,25l-1.5,0.6c0,0,0,0,0,0l-24.8-57.7l2.1-0.8
			c16-6.7,34.4,0.8,41.1,16.8C2227.7,1524.4,2228.4,1529.9,2227.7,1535.2z"/>
		<path class="st14" d="M2227.7,1535.2c-1.4,10.8-8.3,20.5-19,25l-1.5,0.6c0.3-0.4,13.8-16.2,7.4-35.1
			c-6.5-19.2-32.2-22.6-32.2-22.6l2.1-0.8c16-6.7,34.4,0.8,41.1,16.8C2227.7,1524.4,2228.4,1529.9,2227.7,1535.2z"/>
		<path class="st13" d="M1259.9,1541.2c4.1,10,13.3,17.7,24.8,19.3l1.6,0.2c0,0,0,0,0,0l9.2-62.1l-2.3-0.2
			c-17.2-2.4-33,9.6-35.4,26.8C1257.1,1530.8,1257.9,1536.3,1259.9,1541.2z"/>
		<path class="st14" d="M1259.9,1541.2c4.1,10,13.3,17.7,24.8,19.3l1.6,0.2c-0.4-0.3-17.5-12.1-16.2-32.1
			c1.3-20.2,25.4-30.1,25.4-30.1l-2.3-0.2c-17.2-2.4-33,9.6-35.4,26.8C1257.1,1530.8,1257.9,1536.3,1259.9,1541.2z"/>
		<circle class="st15" cx="1412.3" cy="1642.2" r="79.1"/>
		<circle class="st16" cx="1412.3" cy="1642.2" r="39"/>
		
			<ellipse transform="matrix(0.1602 -0.9871 0.9871 0.1602 100.5196 3402.4668)" class="st15" cx="2049.8" cy="1642.2" rx="79.1" ry="79.1"/>
		<circle class="st16" cx="2049.8" cy="1642.2" r="39"/>
		<path class="st10" d="M2224,1627.1c-3,8.7-11.3,15.1-21.2,15.1h-64.4c0-5.1-0.4-10.2-1.3-15.1c-7.2-41.8-43.6-73.5-87.4-73.5
			s-80.2,31.8-87.3,73.5h0c-0.8,4.9-1.3,9.9-1.3,15.1h-460.3c0-5.1-0.4-10.2-1.3-15.1h0c-7.2-41.8-43.5-73.5-87.3-73.5
			c-24.5,0-46.6,9.9-62.7,26c-16,16-26,38.2-26,62.7c-6.5,0-12.6-1.4-18.1-4c-14.8-6.8-25.1-21.8-25.1-39.3v-50.3
			c0-72.1,58.4-130.6,130.6-130.6h620c155.5,0,187.5,140.8,194.1,199.2C2225.5,1620.7,2225.1,1624,2224,1627.1z"/>
		<path class="st12" d="M1406.1,1433.4l33.2-100.1l0.1-0.2c7.3-19.8,19.2-38,34.3-52.5c14.3-13.7,31.6-24.3,50.2-30.6
			c4.9-1.7,10-3.1,15-4.1c8.8-1.9,18-2.8,27.1-2.8h248.8c0.5,0,0.9,0,1.4,0c45,0.5,86.7,23.8,111.5,62.5l0.2,0.2l73.8,127.5
			L1406.1,1433.4L1406.1,1433.4z"/>
		<path class="st17" d="M1976.1,1418.1h-548.8l27.3-80.7c6.8-18,17.4-33.6,30.7-46.2c12.8-12.1,28.2-21.3,44.9-26.9
			c4.4-1.5,8.9-2.7,13.4-3.6c7.9-1.6,16-2.5,24.3-2.5h245.1c0.4,0,0.8,0,1.2,0c40.2,0.4,77.7,21,100,55L1976.1,1418.1z"/>
		<path class="st18" d="M1592.4,1418.1h-55.8l-51.3-126.9c12.8-12.1,28.2-21.3,44.9-26.9L1592.4,1418.1z"/>
		<path class="st18" d="M1635,1418.1h-27.6l-63.6-157.3c7.9-1.6,16-2.5,24.3-2.5h2.3L1635,1418.1z"/>
		<polygon class="st18" points="1836.3,1418.1 1780.5,1418.1 1715.9,1258.2 1771.7,1258.2 		"/>
		<path class="st18" d="M1878.9,1418.1h-27.6l-64.6-159.8h26.5c0.4,0,0.8,0,1.2,0L1878.9,1418.1z"/>
		<rect x="1690" y="1461.8" class="st12" width="36.9" height="18.4"/>
		<rect x="1562.5" y="1461.8" class="st12" width="36.9" height="18.4"/>
		<path class="st12" d="M2155.5,1627.1c-15.5-120.1-196-120-211.5,0h-308.5v-76c0-45.2,16.1-89.1,45.4-123.5l2.2-2.6v-180.2h-18.4
			v173.5c-30.7,37.3-47.6,84.3-47.6,132.8v76H1518c-10.5-77.9-87.5-104.2-145.8-82.8c0.8-36.6,9.6-67.1,25.6-88.3
			c12.5-16.6,25.2-21.9,25.3-22l-0.1,0l-6.7-17.1c-0.7,0.3-16.7,6.7-32.2,26.8c-13.8,17.8-30.3,53.7-30.3,109.1l0.7-0.1
			c-27.5,16.2-47.7,44.9-48.9,85.5c5.5,2.5,11.6,4,18.1,4c3.2-117.3,174.6-116.4,177.3,0h116.3l0,0h18.4l0,0h325.6
			c1.8-116.4,175.5-116.4,177.3,0h64.4c9.9,0,18.2-6.4,21.2-15.1L2155.5,1627.1L2155.5,1627.1z"/>
		<path class="st12" d="M2118.7,1476.3h-99.2c-2.8,0-5-2.2-5-5s2.2-5,5-5h99.2c2.8,0,5,2.2,5,5
			C2123.7,1474,2121.4,1476.3,2118.7,1476.3z"/>
		<path class="st12" d="M2118.7,1494.4h-99.2c-2.8,0-5-2.2-5-5s2.2-5,5-5h99.2c2.8,0,5,2.2,5,5S2121.4,1494.4,2118.7,1494.4z"/>
		<path class="st12" d="M2118.7,1512.4h-99.2c-2.8,0-5-2.2-5-5s2.2-5,5-5h99.2c2.8,0,5,2.2,5,5S2121.4,1512.4,2118.7,1512.4z"/>
	</g>
	<g id="_x33_">
		<path class="st19" d="M380.1,1717.1l-1-0.5c0,0.7-0.9,3.1-1.5,3.1l-29.2,0.6c-0.7,0-1.1-1.3-1.1-2l-2.5-0.7c0-4.4,0.4-5.9,2.3-9.3
			c7.1-9.4-1.4-51.6-1.1-62.6c-1.8-3,30.7-0.7,31.2-1.4c0.7,0,1.3,0.6,1.3,1.3l-3.8,48.2C372.9,1702.9,379.9,1708.5,380.1,1717.1z"
			/>
		<path class="st19" d="M524.4,1721.3h-58.1c-5.1-0.2-5-5.4-4.1-9.4c3.2-14.5-2.5-47.7-3.5-62.5c-0.3-2.7,1.9-5.1,4.6-5.1
			c42.9-0.4,28.9-3.9,25.6,42.4c-2.5,16.2,16.7,19.2,27.7,21C523.8,1708.2,535.9,1718.1,524.4,1721.3z"/>
		<path class="st20" d="M460,1715.3c0.2,2.8,1.6,6.1,4.9,6h60.3c14.2-5.3-7.1-24.1-34.9-24C470.4,1702.7,459.3,1687.3,460,1715.3z"
			/>
		<path class="st20" d="M349.4,1721.3h25.8c12.5-1.7,3.5-25.8-12.9-24.1C345.9,1695.2,336.9,1719.6,349.4,1721.3z"/>
		<path class="st21" d="M510.8,1713.1c0.5,0,1-0.3,1.2-0.8c2.3-5.7,6.5-7.5,6.7-7.5c3.3-5.1-6.2-1.5-9,6.6
			C509.2,1712.2,509.9,1713.2,510.8,1713.1z"/>
		<path class="st21" d="M500.8,1711.9c0.5,0,1-0.3,1.2-0.9c2-6.6,7.8-9.7,7.9-9.7c3-6-8,0.4-10.3,8.9
			C499.3,1711.1,500,1711.9,500.8,1711.9z"/>
		<path class="st21" d="M489.5,1710.5c0.5,0,1-0.3,1.2-0.9c2.4-6.9,7.9-10.6,8-10.7C501.9,1690.2,483.9,1708.2,489.5,1710.5z"/>
		<path class="st21" d="M353.1,1704.9c7.1-4.3,18.1-0.4,18.2-0.1c7.5-1.6-10.2-7.9-18.8-2.3C351.3,1703.1,351.8,1704.9,353.1,1704.9
			z"/>
		<path class="st22" d="M529.3,1715.3H460c0.3,2.1,0.8,4.2,1.9,6h63.2C528.2,1721.3,530.4,1718.2,529.3,1715.3z"/>
		<path class="st22" d="M349.4,1721.3h25.8c3.3,0,5.9-2.8,5.7-6h-37.2C343.5,1718.5,346.2,1721.3,349.4,1721.3z"/>
		<path class="st23" d="M493.4,1131.9c0,0,6.3-17.7-8.7-26.3l-11.4,5.9L493.4,1131.9z"/>
		<path class="st4" d="M482.9,1274.8c56.7,43.3,127.7,33.6,167.9,3.5l2.1-20.6c-92.8,7.2-115.3-37.3-175.1-64.3
			C477.9,1193.4,482.3,1273.4,482.9,1274.8z"/>
		<path class="st24" d="M340.4,1664.3c0.1,4,0.2,8.1,0.3,12.3c0,0,21.9,14.4,43.4,4.3c8.4-45.9,26.4-144.2,44.5-262.8
			c0.2-3.5,32.9,158.9,21.6,266.5c0,0,24.2,6.3,46.1-1.9c15.4-54.9,15.9-154.5,4.9-362.8c0,0-65.6-3.7-113.4-27.4
			C346.8,1340.3,335.4,1584.7,340.4,1664.3z"/>
		<path class="st19" d="M472.2,1191.2c2.7-14.4,9.3-40.3-1.5-46.7c-7.6-4.2-18.4,1.1-17.4,10.7c0.8-0.3-1.2,26.1-4.1,33
			C426.8,1191,487.5,1222.9,472.2,1191.2z"/>
		<path class="st25" d="M453.3,1154c0,0.4,0,0.8,0,1.2c0.6-0.3-0.4,14.3-2.1,24.8c9,6.1,20.3,6,22.3,5.9c1.6-15.3,7.5-34.3-2.8-41.3
			C463.6,1140,453.4,1145.4,453.3,1154z"/>
		<path class="st19" d="M439.5,1141.8c-0.1,10.5,1.4,22.6,8.4,30.7h0c0.3,0.3,0.6,0.6,0.9,0.9c0,0,0,0,0,0
			c10.5,9.9,27,11.7,40.3,4.1h0c10.7-7.1,15.5-18.2,12.2-27.9c-2.3-5.8-7.4-11.4-7.9-17.7C490,1093.9,439.8,1101.3,439.5,1141.8z"/>
		<path class="st26" d="M479.5,1142.1c1.2-1.6-1.3-3.5-2.5-1.9C475.8,1141.8,478.3,1143.7,479.5,1142.1z"/>
		<path class="st26" d="M492.9,1142.1c1.2-1.6-1.3-3.5-2.5-1.9C489.1,1141.8,491.7,1143.8,492.9,1142.1z"/>
		<path class="st25" d="M439.5,1141.8c-0.1,10.5,1.4,22.6,8.4,30.7h0c0.3,0.3,0.6,0.6,0.9,0.9c-8.2-16.4-6-19.8-2.3-31.3
			c12.1-8.6,11.7-20.3,23-20.3c11.3,0,20.6-1.5,20.6-1.5C477.3,1093.3,439.4,1109,439.5,1141.8z"/>
		<path class="st26" d="M487,1154.8c2.6-0.1,5.9-1.3,3.1-3.9c-2.6-2.1-3.8-8.5-3.8-8.5c-2.6-2.4,0,7.2,3.1,9.5
			c2,1.8-2.9,2.3-4.8,1.3C481.9,1153.5,485.8,1155.1,487,1154.8z"/>
		<path class="st27" d="M364.3,1363.5c31.8,24,107.1,30.3,138.9,18.8c10.7-4.5,12.2-40.6,10.9-75.9c-1.9-47.2-13.4-81.3-35.2-112.8
			c-0.3-0.1-4.4-1.9-6.8-2.3c0.1,4.3-0.9,16.8-23-3c-0.1,0.1-6.6-0.8-8.6,0.1c-2.1,1.6-26,17.2-26.6,19.7
			c-1.8,7.6-9.9,26.3-18.7,48.1c-10.2,25.5-20.7,51.7-25.2,75.6C368.4,1341.6,358,1354.1,364.3,1363.5z"/>
		<path class="st23" d="M437.7,1127.7c3.6-30,22.1-29.1,22.1-29.1l0,0c16-21.2,51.5-10.6,36.7,13.3c-8.4,14.7-29.9-1.7-42.6,17.2
			c-5.1,7.6-8.3,12.2-17.1,16.1C436.9,1145.2,435.7,1135.8,437.7,1127.7z"/>
		<path class="st19" d="M432.2,1145.9c0.4,11.9,15.4,11.3,14.8-0.6C446.6,1133.3,431.6,1134,432.2,1145.9z"/>
		<path class="st26" d="M486.6,1163.3c2.1,0.2,4-0.9,2.1-1.4c-0.2,0.1-6,1.6-12.1-4.1c-0.2-0.2-0.6-0.2-0.8,0
			C477.6,1162.4,484.9,1163.3,486.6,1163.3z"/>
		<path class="st4" d="M441,1188.5c7.3,12.4,39.4,31.7,38,5.1c-0.3-0.1-4.4-1.9-6.8-2.4c0,0.7,1.3,19-23-3
			C449.3,1188.4,442.8,1187.3,441,1188.5z"/>
		<path class="st28" d="M482.7,1674.3c25.5-125.3-1.4-286.8-5.5-288c-2.1,1,21.3,163.3,5.2,288.1c-9.4,1.2-21,1-30.8-4.1
			c-0.4,4.8-0.8,9.7-1.3,14.4c0,0,24.2,6.3,46.1-1.9c0,0,1.4-4.2,3.7-12.5C500.1,1670.2,492.6,1673,482.7,1674.3z"/>
		<path class="st28" d="M364.6,1671.8c21.5-136.2,44.8-290.4,41.8-292.7c-3.1,0.4-26.9,157.4-42.2,292.7c-7.3-0.7-15.6-2.8-23.8-7.4
			c0.1,4,0.2,8.1,0.3,12.3c0,0,21.9,14.4,43.4,4.3c0,0,0.7-3.8,2-10.7C386.1,1670.2,376.9,1673,364.6,1671.8z"/>
		<path class="st4" d="M399.3,1200.7c0,0-32.2,25.5-39.6,67.4c-11.4,65.2,19.6,100.7,85.9,118.8c0,0,2.1-8.2,11-10.8
			c0,0-31.8-24.5-39.8-53.8c-8-29.3-4.1-71.6,11.1-88.3C428,1233.9,416.1,1206.5,399.3,1200.7z"/>
		<path class="st29" d="M421.5,1191.6c7.2-7.7,20-8.3,22.3-1c7.1,23.1,17.4,44,20.8,50.8c1-0.7,2.5-1,3.7-1.1
			c16.5-23.6,12.8-45.5,12.8-45.5c10.3-0.7,17,3.3,20.6,9.5c17.8,6.5,15.7,20.6-0.6,31.2c-3.8,8.4-10.2,15.9-18.8,19.9
			c6.2,14.3,13.8,36.8,5.2,41.2c-3.9,3.7-13.4,5.3-13.6-5.3c-0.2-8.8-0.7-22.2-1.8-30.5c-0.9,0.1-1.9,0.1-3-0.2
			c0,0-1.3,29.5,3.6,47.9c4.9,18.4-18,14.9-25.4,8.9c-5.9-4.7-0.7-42.2,7.8-62.4c-5.2-2.8-10.4-7-15.4-11.9v0
			C430.4,1233.6,366.2,1197.4,421.5,1191.6z"/>
		
			<rect x="349.1" y="1336.6" transform="matrix(0.8074 -0.59 0.59 0.8074 -691.2773 579.1085)" class="st10" width="384.6" height="23.5"/>
		
			<rect x="366.7" y="1390.7" transform="matrix(0.8074 -0.59 0.59 0.8074 -737.4348 545.8566)" class="st12" width="201.3" height="23.5"/>
		
			<ellipse transform="matrix(0.7071 -0.7071 0.7071 0.7071 -577.3726 911.2796)" class="st30" cx="811.3" cy="1152.6" rx="141.2" ry="141.2"/>
		<path class="st30" d="M955.3,1203.9c-5,14-12,27.3-21,39.5l-8.4-8.4l-8.4-8.4l-180.2-180.2l-16.8-16.8c0.5-0.4,1.1-0.8,1.6-1.2
			c11.9-8.5,24.6-15.1,37.8-19.8l9.3,9.3l9.5,9.5h0l157.8,157.8l9.5,9.6L955.3,1203.9z"/>
		<path class="st30" d="M920.3,1259.9c-6,6.1-12.6,11.8-19.8,16.9c-12.3,8.8-25.4,15.5-39,20.3l-9.3-9.3l-9.6-9.6l-156.9-156.9
			l-9.5-9.5l-9.3-9.3c7.7-22.3,20.3-42.3,37.2-58.8l16.6,16.6l183.1,183.1l8.3,8.3L920.3,1259.9z"/>
		<path class="st12" d="M935.6,1063.4c-78-110.7-255.4-67.5-275.1,64.4c-22,110.8,97.6,209.4,201.1,169.3
			C955.5,1266.4,996,1144.6,935.6,1063.4z M936.6,1185.1c-10.9,44.8-49.2,82.6-93.9,93.1c-125.9,31.8-215.8-126.2-122-218
			C813.2,968.9,969.8,1059.6,936.6,1185.1z"/>
		<path class="st19" d="M664.2,1276.8c6,4.8,11.3-3.5,2.9-4.4l0.1,0.1C663.9,1269.9,661.1,1274.4,664.2,1276.8z"/>
		<path class="st19" d="M668.4,1273.7c7.7,4.2,10-6.3,2.5-4.9c0.2,0-0.7-0.2-0.6-0.2C666.5,1266.8,665,1272.2,668.4,1273.7z"/>
		<path class="st19" d="M672.9,1270.7l2.9,0.6c4,0.6,3.5-5.3,0.1-5.7l-2.9-0.6C669,1264.4,669.5,1270.3,672.9,1270.7z"/>
		<path class="st19" d="M676.4,1267.5l2.9,0.6c4,0.6,3.5-5.3,0.1-5.7l-2.9-0.6C672.5,1261.2,673,1267,676.4,1267.5z"/>
		<path class="st19" d="M480,1379.9l-5.6,4.1c0,0,0,0.1,0.1,0.1c2.4,3.7,5.7,6.8,9.6,9c3.7,2.2,7.4,4.3,11.5,6
			c5.4,8.1-16.6-1.7-19.4-2.3c0,0.1,0,0,0,0.1c5,4.4,10.4,8.6,16,12.2c3.6,9.6-17.6-6.6-20.2-8c0,0,0,0,0,0c4,5,8.6,9.5,13.7,13.4
			c2.8,10.1-17.4-8.1-19.4-10.4c0,0,0,0-0.1,0c2.5,4.4,5.7,8.6,9,12.4c1.3,9.9-13.9-8.6-15.4-10.8c-1.6-0.9-9.5-8.3-14.2-19
			c-1.5-3.5,7.9-12.8,11-10.8c2.4,1.5,10,1.5,11.6,1.9C472.1,1378.5,476.1,1378.4,480,1379.9z"/>
		<path class="st26" d="M472.6,1138c-0.1,0-0.3-0.1-0.4-0.2c-0.2-0.2-0.3-0.6,0-0.8c3.5-3.9,8.5-3.6,8.8-3.6c0.3,0,0.6,0.3,0.5,0.6
			c0,0.3-0.3,0.6-0.6,0.6c0,0-4.7-0.2-7.8,3.2C472.9,1138,472.7,1138,472.6,1138z"/>
		<path class="st26" d="M493.2,1136.3c-0.1,0-0.3,0-0.4-0.1c0,0-2.8-2.1-6-1.6c-0.3,0.1-0.6-0.2-0.7-0.5c0-0.3,0.2-0.6,0.5-0.7
			c3.8-0.6,6.8,1.7,7,1.8c0.3,0.2,0.3,0.6,0.1,0.8C493.5,1136.3,493.4,1136.3,493.2,1136.3z"/>
		<path class="st26" d="M442.8,1141.8c0.4-1.2-3.4-2.7-6.1-1.4c-1.4,0.6-3.3,5.7-1.2,8.5c0.4,0,0.6-0.3,0.6-0.7
			c-0.3-2.5-0.2-4.4,0.3-5.6c0,0,0.1,0.1,0.1,0.1c0.2,0,3.9,0.9,4.9,6.3c0.1,0.3,0.3,0.5,0.6,0.5c0,0,0.1,0,0.1,0
			c0.4-0.1,0.6-0.4,0.5-0.8c-1-5.3-4.4-6.9-5.5-7.2c0.1-0.1,0.1-0.1,0.2-0.1C440,1139.9,441.9,1142.8,442.8,1141.8z"/>
	</g>
	<g id="_x32_">
		<path class="st23" d="M1311,209c0,0,8.7-16.8,35.2-11.8c26.5,5,32.8,38.6,41.7,53.9c19.1,32.4,24.8,66.9,14.9,83.4
			c-11,18.4-35.3,11.2-70.7,7.9c-37.8-3.5-53.7-36.4-30.1-81.5L1311,209z"/>
		<path class="st4" d="M1321.9,287c-10.4,15.2-17,89.3-17.2,95c-12.2-0.9-41.5-3.1-54-4c-3.5-27.1,32.4-82.7,65.2-89.3c0,0,0,0,0,0
			C1319.7,287.5,1321.9,287,1321.9,287z"/>
		<path class="st19" d="M1168.3,695.4l52.7-0.6c-0.1-8.4-2.4-25.4-0.7-35l-22.7,2.9c0.6,4.6,2,14.6-5.6,17
			c-9.9,3.1-20.7,2.2-26.9,9.8C1163.4,692.1,1165.3,695.5,1168.3,695.4z"/>
		<path class="st29" d="M1222.5,689.8c-0.2,1.8-0.7,3.5-1.5,5.1l-53.2,0.6c-2.6,0-4.5-2.5-3.7-5c2-5.7,8.9-14.1,33.4-15.6
			c0,0,8.4,2.4,22.1-0.2C1219.6,674.6,1223.3,682.5,1222.5,689.8z"/>
		<path class="st21" d="M1179.8,688.4c-0.4,0-0.8-0.3-1-0.7c-2-4.8-5.5-6.2-5.7-6.3c-2.8-4.3,5.2-1.3,7.7,5.5
			C1181.1,687.6,1180.5,688.4,1179.8,688.4z"/>
		<path class="st21" d="M1188.1,687.3c-0.5,0-0.9-0.3-1-0.8c-1.8-5.5-6.7-8.1-6.7-8.1c-2.6-5,6.8,0.3,8.8,7.4
			C1189.4,686.6,1188.8,687.3,1188.1,687.3z"/>
		<path class="st21" d="M1197.7,686c-0.4,0-0.9-0.3-1-0.7c-2.1-5.8-6.8-8.9-6.8-8.9c-2-5.3,6.5,1,8.8,8.2
			C1198.9,685.3,1198.4,686.1,1197.7,686z"/>
		<path class="st31" d="M1164.2,690.4l58.4-0.6c-0.2,1.8-0.7,3.5-1.5,5.1l-53.2,0.6C1165.2,695.5,1163.3,692.8,1164.2,690.4z"/>
		<path class="st4" d="M1335.2,494.3c-25.9-1.1-71.1-15.4-90.6,17.6c-21.3,36-16.1,112.5-13.9,149.4c-28.5,9.2-43.8,0-43.8,0
			c-12.1-75.6-52.1-247.9,81.5-224c0,0,89.6,0,89.6,0C1372.9,467.9,1359.5,493.8,1335.2,494.3z"/>
		<path class="st19" d="M1231.5,695.4l52.7-0.6c-0.1-8.4-2.4-25.4-0.7-35l-22.7,2.9c0.6,4.6,2.2,14.6-5.6,17
			c-9.9,3-20.7,2.2-26.9,9.8C1226.6,692.1,1228.4,695.5,1231.5,695.4z"/>
		<path class="st29" d="M1285.7,689.7c-0.2,1.8-0.7,3.5-1.5,5.1l-53.2,0.6c-2.6,0-4.5-2.5-3.7-5c2-5.7,8.9-14.1,33.4-15.6
			c0,0,8.4,2.4,22.1-0.2C1282.8,674.6,1286.5,682.5,1285.7,689.7z"/>
		<path class="st21" d="M1242.9,688.4c-0.4,0-0.8-0.3-1-0.7c-2-4.8-5.5-6.2-5.7-6.3c-2.8-4.3,5.2-1.3,7.7,5.5
			C1244.3,687.6,1243.7,688.4,1242.9,688.4z"/>
		<path class="st21" d="M1251.3,687.3c-0.5,0-0.9-0.3-1-0.8c-1.8-5.5-6.7-8.1-6.7-8.1c-2.6-5,6.8,0.3,8.8,7.4
			C1252.6,686.6,1252,687.3,1251.3,687.3z"/>
		<path class="st21" d="M1260.8,686c-0.4,0-0.9-0.3-1-0.7c-2.1-5.8-6.8-8.9-6.8-8.9c-2-5.3,6.5,1,8.8,8.2
			C1262.1,685.3,1261.6,686,1260.8,686z"/>
		<path class="st31" d="M1227.3,690.4l58.4-0.6c-0.2,1.8-0.7,3.5-1.5,5.1l-53.2,0.6C1228.3,695.5,1226.4,692.8,1227.3,690.4z"/>
		<path class="st27" d="M1275.7,437.3l-7.7,55.8c-33.5,13.2-35.7,49.4-38.8,89C1213.7,520.9,1214.9,458,1275.7,437.3z"/>
		<path class="st4" d="M1369,496.9c-27.1,16.7-54.2-1.5-73.3,37c-15.4,33.7-6.8,98.2-2.5,127.4c-28.5,9.2-43.8,0-43.8,0
			c-16.9-65.2-55.5-216.8,53.6-224c29.9-1,69.1-0.7,95.5-2.3C1398.4,435.1,1405.8,474.2,1369,496.9z"/>
		<path class="st4" d="M1399,419.6c2.3,16.5-1,35.7-1,35.7c-35.3-11.2-67.3-12.3-120.9-19.7c33.8-101.3-44.5-30.4,44.9-148.6
			c0.2,0,21.9,2,22.1,2C1369.2,307.9,1385.4,333,1399,419.6z"/>
		<path class="st27" d="M1276.3,359.3c-0.5,0-0.9-0.5-0.9-1c1.8-14.8,17.5-34,19.5-33c1.4,1.8-16.7,17.7-17.7,33.1
			C1277.1,359,1276.7,359.3,1276.3,359.3z"/>
		<polygon class="st32" points="1182.5,443.1 1301.1,443.1 1277.4,356.2 1159.6,356.2 		"/>
		<rect x="1182.5" y="442.7" class="st33" width="118.6" height="5.9"/>
		<polygon class="st34" points="1275.7,356.2 1279.9,356.2 1303,442.7 1359.3,442.7 1359.3,448.6 1299.1,448.6 1299.1,443.3 		"/>
		<path class="st19" d="M1383.1,305.9c27.3,20.5,41.9,57.3,34.7,90.9c-2.8,18.8-14.7,36.7-33.2,42.1c-9.2,3.7-52,9.6-50-5.6
			c0.7-3.6,3.9-5,7-6c5.2-1.8,10.5-3.8,15.4-6.1c8.8-4.6,20.1-8.9,22.1-18.8c4.1-23.1-5.4-45.7-22.6-60.8c0,0-0.1-0.1,0.2,0.1
			C1333.2,324.3,1359.5,288.6,1383.1,305.9z"/>
		<path class="st4" d="M1399.4,434.6c-13.9,6.2-27.1,8.1-37.2,8.5c0,0,2.3-15.1-8.6-21.3c61.5-46.8-26.3-66.5-9.5-135.2
			C1410.2,287.8,1478.3,387.8,1399.4,434.6z"/>
		<path class="st19" d="M1308.5,442.7c0,0,5.3-18.5,36.8-16.3l6.6,16.3H1308.5z"/>
		<path class="st27" d="M1369.5,442.6c-4.5,0.5-7.3,0.5-7.3,0.5s2.3-15.1-8.6-21.3c0,0,2.7-1.8,6.2-4.9
			C1359.8,416.9,1371.8,425.7,1369.5,442.6z"/>
		<path class="st27" d="M1359.3,419.5c-0.8,0-1.2-1.1-0.6-1.6c27.3-24.4,13.9-50.1-2.3-66.8c-0.8-0.8,0.5-2.1,1.3-1.2
			C1375,367.2,1388.1,395.7,1359.3,419.5z"/>
		<path class="st27" d="M1369,442.7c-5.1-3,14.3-1.5,29.2-8.5c0.5-0.2,1,0,1.2,0.5c0.2,0.5,0,1-0.5,1.2
			C1383.5,442.2,1369.2,442.7,1369,442.7z"/>
		<path class="st35" d="M1350.3,314.3c-0.6,4.7-5.2,6.2-6.3,6c-15.9-6.8-4.6,14.6-11.1,16.8c-5.5,1.8-6.1-5.3-10.9-5.7
			c-6.9-0.6-8.4,3.2-10.8,0.9c-3.4-3.2,4.8-8.8,3.8-14.5c-0.7-4-8.7,0-8.6-8.3c0.1-8.1,9.4-20.3,9.7-20.7c0,0,0,0,0,0
			c5.9-3.3,18.6-1.8,24.4-1.7c0.1-0.6,3.7-0.4,3.7-0.4s2.6-0.6,5,0.4C1350.4,293.6,1351.5,307.2,1350.3,314.3z"/>
		<path class="st19" d="M1322.5,279.1l-0.5,7.9c0,0-0.7,7.6-0.7,21.6c0,19.8,4.9,17.5,11.7,3.7c3.7-7.6,11.3-25.1,11.3-25.1
			s0-5.2,0.4-8.4L1322.5,279.1z"/>
		<path class="st25" d="M1348.9,256.6c-0.1,0.4-0.2,0.8-0.3,1.1c-0.5-0.4-3.2,12.7-4.2,22.7c-9.5,5.5-20.4,4.8-22.3,4.2
			c0.5-14.8,1.8-36.9,13.1-41C1342.8,241.2,1350.9,248.8,1348.9,256.6z"/>
		<path class="st23" d="M1320.2,207.9c-28.6-3.4-33.1,41.7-13.7,58.3L1320.2,207.9z"/>
		<path class="st19" d="M1353.9,239.7c1.4,9.9,1.5,21.4-4,29.9h0c-15,24.6-64.8,8.7-51.2-20.4c2-3.7,3.1-8.3,3.3-12.1
			C1302.4,196.8,1349.9,205.3,1353.9,239.7z"/>
		<path class="st26" d="M1316.3,245c-1.4-1.4,0.8-3.5,2.1-2.1C1319.8,244.3,1317.6,246.4,1316.3,245z"/>
		<path class="st26" d="M1303.7,246.7c-1.4-1.4,0.8-3.5,2.1-2.1C1307.2,246,1305,248.1,1303.7,246.7z"/>
		<path class="st26" d="M1311.2,257.8c-2.5,0.4-6.2-0.3-3.8-3.3c2.2-2.3,2.5-8.4,2.5-8.5c0-0.7,1.2-0.7,1.1,0c0,0.3-0.3,6.7-2.8,9.3
			c-0.3,0.3-0.6,0.7-0.4,1c0.6,0.7,3.4,0.8,5.1-0.3c0.3-0.2,0.6-0.1,0.8,0.1C1314.1,257.3,1312.1,257.6,1311.2,257.8z"/>
		<path class="st25" d="M1353.9,239.7c1.4,9.9,1.5,21.4-4,29.9h0c2.5-6.4,1.6-18.6,1.6-18.6l-3.5-4.5c-35.8-0.5-41.1-27.5-41.1-27.5
			C1322.6,197.9,1352,217,1353.9,239.7z"/>
		<path class="st23" d="M1309.6,215.7c0,0,5.3,26.6,37.8,28.2l8.7-9C1360.1,211.7,1332.5,188,1309.6,215.7z"/>
		<path class="st19" d="M1361.3,242.6c1.2,11.3-13.1,12.6-14,1.3C1346.2,232.6,1360.4,231.4,1361.3,242.6z"/>
		<path class="st26" d="M1357.9,239.7L1357.9,239.7c-1.4-4.5-10.1,0.3-6.4,0.5c0-0.2,3.8-2.5,5-0.5c-3.8,1.8-5,8.8-2.8,6.5
			c0,0,0.5-4,3.4-5.5C1358.6,250.9,1359.9,243.8,1357.9,239.7z"/>
		<path class="st35" d="M1356.9,249.4c0.5,1.6-2,2.3-2.4,0.7C1354,248.6,1356.5,247.8,1356.9,249.4z"/>
		<path class="st27" d="M1321.2,342.2c0.1,3.3-5.1,3.3-5,0C1316.1,339,1321.3,339,1321.2,342.2z"/>
		<path class="st27" d="M1316.3,359.9c0.1,3.3-5.1,3.3-5,0C1311.2,356.7,1316.3,356.7,1316.3,359.9z"/>
		<path class="st27" d="M1316.3,375.9c0.1,3.3-5.1,3.3-5,0C1311.2,372.6,1316.3,372.6,1316.3,375.9z"/>
		<path class="st27" d="M1229.8,648.6c0.5,7.9,0.9,12.7,0.9,12.7c-28.5,9.2-43.8,0-43.8,0s-0.8-4-2-10.8
			C1185.2,650.7,1203.1,659.5,1229.8,648.6z"/>
		<path class="st27" d="M1293.1,661.3c-28.5,9.2-43.8,0-43.8,0s-1-3.7-2.7-10c0,0,15.8,8.2,44.9,0
			C1292.5,657.6,1293.1,661.3,1293.1,661.3z"/>
		<path class="st25" d="M1310.2,442.5c-5.6,0.2,14.8-13.8,20.9-10.4c0.1,0.5-0.3,0.9-0.8,1C1318.8,434.3,1311.2,442.5,1310.2,442.5z
			"/>
		<path class="st25" d="M1318.8,442.8c-4.3-1.8,8.9-4.9,15.5-6.7c0.5-0.1,1,0.2,1.1,0.7c0.1,0.5-0.2,1-0.7,1.1
			C1327.7,439.3,1319.5,442.8,1318.8,442.8z"/>
		<path class="st26" d="M1320.9,240.4c-0.1,0-0.3,0-0.4-0.1c-3.6-2.8-6.8-1.9-7-1.9c-0.3,0.1-0.7-0.1-0.8-0.4
			c-0.1-0.3,0.1-0.7,0.4-0.8c0.2-0.1,4-1.2,8.1,2.1c0.3,0.2,0.3,0.6,0.1,0.9C1321.3,240.3,1321.1,240.4,1320.9,240.4z"/>
		<path class="st26" d="M1302.2,242c-0.1,0-0.3,0-0.4-0.1c-0.3-0.2-0.4-0.6-0.2-0.9c0.1-0.1,2.1-3,5.4-2.9c0.3,0,0.6,0.3,0.6,0.7
			c0,0.4-0.3,0.6-0.7,0.6c-2.6-0.1-4.3,2.3-4.3,2.3C1302.6,241.9,1302.4,242,1302.2,242z"/>
		<path class="st26" d="M1316,263.9c-0.8,0-1.6-0.3-2-0.9c-1-1.3-0.3-3.4,1.5-4.8c1.8-1.4,4-1.5,5-0.2l0,0c1,1.3,0.3,3.4-1.5,4.8
			C1318,263.5,1316.9,263.9,1316,263.9z M1318.4,258.3c-0.6,0-1.4,0.3-2.2,0.9c-1.3,1-1.7,2.4-1.3,3s1.9,0.6,3.2-0.5s1.7-2.4,1.3-3
			l0,0C1319.3,258.5,1318.9,258.3,1318.4,258.3z"/>
	</g>
	<g id="_x31_">
		<path class="st29" d="M2336.6,1264.6c-1.1,0.6,13.1,0.4,12.2,1.5c-29.7,25.7-74.1,33.9-107,8.8v0c-9.8-7.2-19.7-18.7-26.6-30.8
			l8.1-13.1c64.2,39.6,89.6-28,141.8-33.2l-10.4,15.3L2336.6,1264.6z"/>
		<path class="st19" d="M2407.9,1717.1l1-0.5c0,0.7,0.9,3.1,1.5,3.1l29,0.6c0.7,0,1.1-1.3,1.1-2l2.5-0.7c0-4.3-0.4-5.9-2.3-9.3
			c-7-9.4,1.4-51.2,1.1-62.1c1.7-3-30.5-0.6-30.9-1.3c-0.7,0-1.3,0.6-1.2,1.3l3.8,47.8C2415.1,1703.1,2408.1,1708.6,2407.9,1717.1z"
			/>
		<path class="st19" d="M2282.3,1721.3h57.7c5-0.2,5-5.3,4.1-9.3c-3.2-14.4,2.4-47.3,3.5-62.1c0.3-2.7-1.8-5.1-4.6-5.1h-25.5
			c-2.8,0-4.9,2.4-4.6,5.2l4.6,36.9c2.5,16-16.6,19.1-27.5,20.9C2282.9,1708.3,2270.9,1718.1,2282.3,1721.3z"/>
		<path class="st4" d="M2346.3,1715.3c-0.2,2.8-1.6,6.1-4.8,6h-59.8c-14.1-5.2,7-24,34.7-23.8
			C2335.9,1702.8,2346.9,1687.5,2346.3,1715.3z"/>
		<path class="st4" d="M2438.3,1721.3h-25.6c-12.5-1.7-3.5-25.6,12.8-23.9C2441.9,1695.3,2450.8,1719.6,2438.3,1721.3z"/>
		<path class="st27" d="M2277.4,1715.3h68.9c-0.3,2.1-0.8,4.1-1.9,6h-62.8C2278.5,1721.3,2276.3,1718.2,2277.4,1715.3z"/>
		<path class="st27" d="M2438.3,1721.3h-25.6c-3.3,0-5.9-2.7-5.7-6h36.9C2444.2,1718.6,2441.6,1721.3,2438.3,1721.3z"/>
		<path class="st29" d="M2357,1131.9c0,0-0.3-18.7,16.6-22l8.9,9.2L2357,1131.9z"/>
		<path class="st6" d="M2445.8,1688.7c0,0-27.3,6.6-41.3-0.5c-7.3-45.9-27.6-173.6-34.7-261.1c-0.3,5.1-15.1,210.9-17.9,261.1
			c-9.7,3.3-29.2,7.2-40.1-0.7c-4.9-52.8-20.6-226.8,3.1-368.8c0,0,65,7.2,115.8-8.1C2444.5,1355.6,2448.2,1634.6,2445.8,1688.7z"/>
		<path class="st36" d="M2445.5,1678.3c-7.8,1.8-15,2.4-21.2,2.4c-2.8-155.1-25.8-301.4-29.3-301.9c-2.6,1.9,19.9,146.5,29.2,301.9
			c-12.9,0.1-21.3-2.4-21.3-2.4c1,6.3,1.6,9.9,1.6,9.9c14.1,7.1,41.3,0.5,41.3,0.5C2445.7,1688.1,2445.6,1684.4,2445.5,1678.3z"/>
		<path class="st36" d="M2351.8,1688.2c-0.2-4.4,17.9-261.1,17.9-261.1s-8.6,4.6-10.6,31.8c-1.8,23.7-12.4,181.2-15.1,221.9
			c-8.5,1.9-16.1,1.5-21.9,0.6c-6.5-151.1,8.7-280.7,6.4-282.3c-4,0.3-19.3,131.1-6.5,282.3c-6.9-1.1-11.3-3.1-11.3-3.1
			c0.6,6,0.9,9.2,0.9,9.2c8.9,6.4,23.6,5,34,2.4c2.6-0.6,4.6-1.3,5.6-1.6C2351.4,1688.3,2351.6,1688.2,2351.8,1688.2z"/>
		<path class="st19" d="M2364.6,1197.2c-1.4-12.4,0.5-30.2,2.2-37.6c3.1-14.5,26.1-8.9,22.3,5.4c-0.7-0.5-3.1,25.8-1.5,33.1
			C2409.1,1204.5,2344.3,1225.8,2364.6,1197.2z"/>
		<path class="st25" d="M2389.3,1163.8c-0.1,0.4-0.1,0.8-0.2,1.2c-0.5-0.3-2,14.1-2,24.6c-9.9,4.5-20.9,2.5-22.9,2.1
			c-0.2-13.3,1-25.4,3-33.1C2371.1,1145.8,2391.3,1150.5,2389.3,1163.8z"/>
		<path class="st19" d="M2404.6,1158.4c-3.3,9.9-8.5,20.8-17.6,26.2h0c-3.7,2.2-7.9,3.3-12.2,3.4c-24.3,3.3-48.3-29.8-26.4-46.3
			c3.6-2.6,6.8-6.3,8.7-9.8C2376.5,1094.3,2416.5,1123.8,2404.6,1158.4z"/>
		<path class="st37" d="M2353.8,1162.3l14.4-4.7C2368.3,1165.8,2358.7,1169.7,2353.8,1162.3z"/>
		<path class="st20" d="M2322.4,1249.5l-10,36.7c-21.4,6.6-44.3,5.1-64.5-7.3c22.2,12.5,52.6,5.5,57.4-1.9
			C2310.4,1269.3,2321.7,1250.7,2322.4,1249.5z"/>
		<path class="st29" d="M2440,1371.9c-2.3,2.8-4.8,5.7-7.4,8.5c0,0-12.8,2.4-22.8-10.9c40.8-86.5-38-94.5-22.2-171.4
			C2440.2,1204.3,2513.4,1282.8,2440,1371.9z"/>
		<path class="st26" d="M2366.8,1145.9c-0.6-1.9,2.4-2.9,3-0.9C2370.4,1146.9,2367.4,1147.8,2366.8,1145.9z"/>
		<path class="st26" d="M2354.3,1141.7c-0.6-1.9,2.4-2.9,3-0.9C2357.9,1142.6,2354.8,1143.6,2354.3,1141.7z"/>
		<path class="st25" d="M2404.6,1158.4c-3.3,9.9-8.5,20.8-17.6,26.2h0c-0.8,0.4-1.5,0.8-2.3,1.2c7.1-5.1,12.7-17.5,12.7-17.5
			l0.3-11.2c-8.3-11.6-2.2-22.1-2.2-22.1c-17.2,2-21.1-9.1-21.1-9.1c-5.3-0.2-10.4-3.7-10.4-3.7
			C2387.6,1098.4,2414.9,1132.4,2404.6,1158.4z"/>
		<path class="st26" d="M2353.8,1162.9c0.3-0.4,15.7-4.3,15-5.4c0.3-1.4-14.9,4.5-15.2,4.3C2353,1161.9,2353.2,1162.9,2353.8,1162.9
			z"/>
		<path class="st26" d="M2358,1155.9c1,0.3,1.9-1.1,0.6-1.2c-2.1,0.4-6.6-1.7-4.1-2.8c3.6-1.2,9.2-9.4,5.9-7.9
			c0,0.1-3.1,5.7-6.3,6.8C2349.8,1152.9,2355,1155.9,2358,1155.9z"/>
		<path class="st20" d="M2440,1371.9c-2.3,2.8-4.8,5.7-7.4,8.5c0,0-13,1.8-23-11.5c1.5-3.6,3.1-5.9,4.3-9.4
			C2413.9,1359.4,2421.6,1368.1,2440,1371.9z"/>
		<path class="st36" d="M2433.5,1382.1c2.8,0.8,5.6-2.4,1.9-3.4c-20.2,0.9-25.6-12.5-25.9-13.1
			C2400.8,1360.7,2411.6,1383.3,2433.5,1382.1z"/>
		<path class="st35" d="M2305.3,1379.7c0,0,4,17,35.7,25.4c9.1,2.4,14.4,1.2,15.7-5.1c0.7-3.2,2.4-8.7,5.6-10.7c0,0,7.1,3.1,9.8,7.4
			c5.9,9.6,14.7,0.9,19.1-9.1c5.3-12.4,18.9-22.8,21.8-33.2L2305.3,1379.7z"/>
		<path class="st29" d="M2434.8,1358.7c-1,1.8-1.6,1.5-2.7,0.5c-28.5-21.3-38.8,25.3-69.5,26.1c-31.3,3.1-48.7,4.9-57.3-5.5
			c-14.9-23.1,8.8-126.2,27.9-151.2c8.4-13,23.3-24.6,31.3-31.3c-0.2,0.7-4.4,18.4,23,0.8c1.4,0.6,10.1,9.1,9.5,13.6
			C2398.5,1232.6,2448.1,1335.2,2434.8,1358.7z"/>
		<path class="st29" d="M2355.5,1105.3c0,0,8.1-2.2,16.3,1c0.9-3.1,2.9-6,6-8.3c1.4,3.8,3.3,7.5,5.4,10.9c0.8-7.2,5.2-13,5.2-13
			c1.2,6.8,10.6,11.8,15.1,19.2l0.2-0.3c0,0,25,9,7,31.2l0,0c-0.7,8.2-4.8,16.5-4.8,16.5c-13.3-12.1-10.4-26.7-4.4-30.4
			c-10.8,3.8-20.4-0.7-25.9-7.9C2367.8,1122.8,2357.9,1118.4,2355.5,1105.3z"/>
		<path class="st20" d="M2418.3,1365.2l-6.3-1.3c25-56.3-4.4-80.1-20-111.9C2428.1,1293.8,2433.6,1316.7,2418.3,1365.2z"/>
		<path class="st19" d="M2410.2,1164.6c-4.1,11.1-18.1,5.7-13.7-5.3C2400.6,1148.2,2414.6,1153.6,2410.2,1164.6z"/>
		<path class="st26" d="M2406.3,1166.4c2.6-2.7,2.6-7.2,1.4-8.4c-2.1-2.2-6.1-1.9-6.1-0.7c0.5,1.3,3.3-0.8,5.2,1.4
			C2408.8,1160.3,2404.6,1165.7,2406.3,1166.4z"/>
		<path class="st26" d="M2401,1164.7c0.9-0.1,2.4-4.2,6.8-3.9c0.3,0,0.6-0.2,0.6-0.5C2405.5,1157.3,2398.3,1164.8,2401,1164.7z"/>
		<path class="st35" d="M2396,1199.6c0.1,10.5-26.7,19.7-28.3,19.7l-3.2-9.5c-4.1,1-7.8,6.8-7.8,6.8c-11.9-11.4-0.7-21.3,7.8-19.4
			c0,0,0,0,0,0c-0.2,0.7-2,16.2,22.9,0.3C2390.7,1196,2396,1199.6,2396,1199.6z"/>
		<path class="st20" d="M2230.4,1234.7c0,8.4-11.4,15.4-11.4,15.4c-1.3-1.9-2.6-4-3.8-6l8.1-13.1
			C2225.7,1232.3,2228.1,1233.5,2230.4,1234.7z"/>
		<path class="st19" d="M2211.4,1207.4c-3.1,2,2,8.2,1.6,11.6c-5.2-2.4-9.7-6.3-9.8-6.2c-4.4-5.5-8.6-11.2-12.5-17.1
			c-9.6-4.4,5.6,17.3,6.8,20c0,0-0.1,0.1-0.1,0.1c-5.8-4.7-11.3-9.6-16.3-15c-10.8-2.3,10.9,17.6,12.9,19.9c0,0,0,0,0,0.1
			c-6.1-3.4-11.9-7.7-17.1-12.4c-11.1-1.3,12.6,17.1,15.2,18.8c0,0,0,0.1,0,0.1c-4.7-0.6-14.3-9.3-17.4-7.2
			c-2.9,4.8,28.7,21.8,39.8,23.9c4,1.1,9.7-8.9,8.8-12.9c-0.9-3.7-3.5-8.2-4.3-9.9C2217.5,1217.2,2216,1207.7,2211.4,1207.4z"/>
		<path class="st31" d="M2241.7,1274.7c0.3,0.3,0.7,0.5,1,0.8c-0.3-0.3-0.6-0.5-0.9-0.7L2241.7,1274.7
			C2241.7,1274.8,2241.7,1274.7,2241.7,1274.7z"/>
		<path class="st26" d="M2375.3,1145.5c-0.3,0-0.6-0.2-0.6-0.5c-0.1-0.2-1.2-4.3-7.5-6.4c-0.4-0.1-0.5-0.5-0.4-0.9
			c0.1-0.3,0.5-0.5,0.9-0.4c7,2.4,8.3,7.2,8.3,7.4c0.1,0.4-0.1,0.7-0.5,0.8C2375.4,1145.5,2375.3,1145.5,2375.3,1145.5z"/>
		<path class="st26" d="M2354.9,1136.8c-0.2,0-0.4-0.1-0.5-0.2c-0.2-0.3-0.2-0.7,0.1-0.9c3.4-2.9,8-0.6,8.2-0.5
			c0.3,0.2,0.5,0.6,0.3,0.9c-0.2,0.3-0.6,0.5-0.9,0.3c0,0-4-2-6.7,0.3C2355.3,1136.7,2355.1,1136.8,2354.9,1136.8z"/>
	</g>
</g>
</svg>
